<svg width="367" height="280" viewBox="0 0 367 280" fill="none" xmlns="http://www.w3.org/2000/svg">
<g clip-path="url(#clip0_21_410)">
<path d="M52.4235 165.334C65.2671 165.334 75.6789 154.922 75.6789 142.078C75.6789 129.234 65.2671 118.822 52.4235 118.822C39.5798 118.822 29.168 129.234 29.168 142.078C29.168 154.922 39.5798 165.334 52.4235 165.334Z" fill="#FF6584"/>
<path d="M100.048 273.436H100.024C99.2056 273.435 98.4205 273.11 97.8415 272.531C97.2624 271.952 96.9367 271.167 96.9358 270.348V89.0258C96.9367 88.2069 97.2624 87.4218 97.8415 86.8428C98.4205 86.2638 99.2056 85.9381 100.024 85.9371H252.638C253.457 85.938 254.242 86.2638 254.821 86.8428C255.4 87.4218 255.726 88.2069 255.727 89.0258V230.014C255.726 230.828 255.404 231.61 254.83 232.188C254.256 232.766 253.477 233.095 252.662 233.102L100.048 273.436Z" fill="#F2F2F2"/>
<path d="M212.85 60.3195H141.993V19.2586C141.994 18.3916 142.339 17.5603 142.952 16.9472C143.565 16.3341 144.397 15.9893 145.264 15.9883H209.579C210.446 15.9893 211.278 16.3341 211.891 16.9472C212.504 17.5603 212.849 18.3916 212.85 19.2586V60.3195ZM142.72 59.5927H212.123V19.2586C212.122 18.5842 211.854 17.9377 211.377 17.4609C210.9 16.984 210.254 16.7158 209.579 16.715H145.264C144.589 16.7158 143.943 16.984 143.466 17.4609C142.989 17.9377 142.721 18.5842 142.72 19.2586V59.5927Z" fill="#3F3D56"/>
<path d="M162.16 31.6133H192.683C193.454 31.6133 194.193 31.9196 194.738 32.4647C195.284 33.0099 195.59 33.7493 195.59 34.5202V78.1247H159.253V34.5202C159.253 33.7493 159.559 33.0099 160.105 32.4647C160.65 31.9196 161.389 31.6133 162.16 31.6133Z" fill="#E6E6E6"/>
<path d="M168.156 16.715H153.258V1.81685C153.258 1.33516 153.45 0.873359 153.79 0.532752C154.131 0.192146 154.593 0.00055107 155.074 0H166.339C166.821 0.00055107 167.282 0.192146 167.623 0.532752C167.963 0.873359 168.155 1.33516 168.156 1.81685V16.715ZM153.984 15.9883H167.429V1.81685C167.429 1.52783 167.314 1.25074 167.109 1.04638C166.905 0.842008 166.628 0.727056 166.339 0.726741H155.074C154.785 0.727056 154.508 0.842008 154.304 1.04638C154.1 1.25074 153.985 1.52783 153.984 1.81685V15.9883Z" fill="#3F3D56"/>
<path d="M290.577 235.769C290.433 235.769 290.292 235.769 290.147 235.765C281.157 235.666 272.514 232.287 265.84 226.264C265.593 226.04 265.348 225.812 265.105 225.582L264.993 225.474V155.834L265.027 155.76C265.268 155.25 265.512 154.747 265.756 154.245C273.314 138.9 282.129 130.45 290.577 130.45C302.761 130.45 312.21 147.163 316.758 157.125C323.082 170.978 327.499 188.144 327.499 198.869C327.496 208.585 323.662 217.908 316.829 224.816C309.996 231.723 300.715 235.658 290.999 235.766C290.864 235.769 290.719 235.769 290.577 235.769ZM265.72 225.163C265.921 225.353 266.124 225.541 266.327 225.726C272.871 231.631 281.346 234.942 290.16 235.039C290.307 235.042 290.446 235.039 290.587 235.042C290.719 235.042 290.854 235.042 290.986 235.039C310.721 234.82 326.772 218.594 326.772 198.869C326.772 188.237 322.382 171.195 316.097 157.427C311.621 147.623 302.355 131.177 290.577 131.177C282.42 131.177 273.837 139.482 266.409 154.564C266.179 155.038 265.948 155.514 265.719 155.996L265.72 225.163Z" fill="#3F3D56"/>
<path d="M290.576 279.827C290.465 279.827 290.358 279.783 290.28 279.705C290.202 279.626 290.158 279.52 290.158 279.409V194.065C290.157 194.01 290.168 193.955 290.189 193.904C290.21 193.853 290.24 193.807 290.279 193.768C290.318 193.729 290.364 193.698 290.415 193.676C290.466 193.655 290.521 193.644 290.576 193.644C290.631 193.644 290.685 193.655 290.736 193.676C290.787 193.698 290.833 193.729 290.872 193.768C290.911 193.807 290.942 193.853 290.963 193.904C290.983 193.955 290.994 194.01 290.994 194.065V279.409C290.994 279.52 290.95 279.626 290.871 279.705C290.793 279.783 290.687 279.827 290.576 279.827Z" fill="#CCCCCC"/>
<path d="M73.646 279.827C73.5351 279.827 73.4288 279.783 73.3504 279.705C73.272 279.626 73.2279 279.52 73.2279 279.409V194.065C73.2276 194.01 73.2382 193.955 73.259 193.904C73.2799 193.853 73.3107 193.807 73.3495 193.768C73.3884 193.729 73.4346 193.698 73.4854 193.676C73.5363 193.655 73.5909 193.644 73.646 193.644C73.7011 193.644 73.7557 193.655 73.8065 193.676C73.8574 193.698 73.9036 193.729 73.9425 193.768C73.9813 193.807 74.0121 193.853 74.0329 193.904C74.0538 193.955 74.0644 194.01 74.064 194.065V279.409C74.064 279.52 74.02 279.626 73.9416 279.705C73.8632 279.783 73.7569 279.827 73.646 279.827Z" fill="#CCCCCC"/>
<path d="M290.576 210.01C290.516 210.01 290.457 209.997 290.402 209.973C290.348 209.948 290.299 209.911 290.26 209.866L269.234 185.618C269.162 185.534 269.126 185.425 269.134 185.315C269.142 185.204 269.193 185.102 269.277 185.029C269.36 184.957 269.469 184.92 269.58 184.928C269.69 184.936 269.793 184.987 269.866 185.07L290.892 209.318C290.944 209.379 290.978 209.453 290.989 209.532C291.001 209.612 290.989 209.693 290.956 209.766C290.923 209.839 290.869 209.9 290.802 209.944C290.735 209.987 290.656 210.01 290.576 210.01V210.01Z" fill="#CCCCCC"/>
<path d="M290.576 224.004C290.493 224.004 290.412 223.979 290.343 223.934C290.275 223.888 290.221 223.822 290.19 223.746C290.158 223.67 290.15 223.585 290.166 223.504C290.182 223.423 290.222 223.349 290.28 223.29L302.227 211.343C302.306 211.265 302.412 211.221 302.523 211.221C302.633 211.221 302.739 211.265 302.818 211.344C302.896 211.422 302.94 211.528 302.94 211.639C302.94 211.749 302.896 211.856 302.818 211.934L290.871 223.882C290.833 223.92 290.786 223.951 290.736 223.972C290.685 223.993 290.631 224.004 290.576 224.004Z" fill="#CCCCCC"/>
<path d="M329.255 280H298.004V279.637C298.003 277.584 298.406 275.551 299.191 273.655C299.976 271.758 301.126 270.034 302.578 268.583C304.029 267.131 305.752 265.979 307.648 265.193C309.544 264.408 311.577 264.003 313.629 264.003C315.682 264.003 317.714 264.408 319.611 265.193C321.507 265.979 323.23 267.131 324.681 268.583C326.132 270.034 327.283 271.758 328.068 273.655C328.852 275.551 329.256 277.584 329.255 279.637L329.255 280ZM298.735 279.273H328.524C328.429 275.386 326.818 271.689 324.035 268.974C321.252 266.258 317.518 264.737 313.629 264.737C309.741 264.737 306.006 266.258 303.223 268.974C300.44 271.689 298.829 275.386 298.735 279.273H298.735Z" fill="#3F3D56"/>
<path d="M313.629 270.768C313.52 270.768 313.415 270.811 313.338 270.889C313.26 270.966 313.217 271.071 313.217 271.18V275.562L308.948 271.899C308.907 271.863 308.859 271.836 308.808 271.819C308.756 271.802 308.702 271.795 308.648 271.8C308.594 271.804 308.541 271.818 308.492 271.843C308.444 271.867 308.401 271.901 308.366 271.942C308.33 271.983 308.303 272.031 308.286 272.083C308.27 272.134 308.263 272.189 308.267 272.243C308.271 272.297 308.286 272.35 308.311 272.398C308.335 272.446 308.369 272.489 308.411 272.525L313.217 276.65V279.224C313.217 279.278 313.227 279.332 313.248 279.382C313.268 279.432 313.299 279.478 313.337 279.517C313.375 279.555 313.421 279.585 313.471 279.606C313.521 279.627 313.575 279.638 313.629 279.638C313.684 279.638 313.737 279.627 313.787 279.606C313.838 279.585 313.883 279.555 313.921 279.517C313.96 279.478 313.99 279.432 314.011 279.382C314.031 279.332 314.042 279.278 314.042 279.224V271.18C314.042 271.071 313.998 270.966 313.921 270.889C313.844 270.811 313.739 270.768 313.629 270.768Z" fill="#3F3D56"/>
<path d="M67.2678 280H36.0165V279.637C36.0155 277.584 36.4189 275.551 37.2037 273.655C37.9885 271.758 39.1394 270.034 40.5904 268.583C42.0415 267.131 43.7644 265.979 45.6607 265.193C47.557 264.408 49.5895 264.003 51.6421 264.003C53.6948 264.003 55.7273 264.408 57.6236 265.193C59.5199 265.979 61.2428 267.131 62.6938 268.583C64.1449 270.034 65.2957 271.758 66.0806 273.655C66.8654 275.551 67.2688 277.584 67.2678 279.637L67.2678 280ZM36.7475 279.273H66.5367C66.4419 275.386 64.831 271.689 62.0481 268.974C59.2652 266.258 55.5307 264.737 51.6421 264.737C47.7536 264.737 44.0191 266.258 41.2362 268.974C38.4532 271.689 36.8424 275.386 36.7475 279.273H36.7475Z" fill="#3F3D56"/>
<path d="M51.6421 270.768C51.5327 270.768 51.4278 270.811 51.3504 270.889C51.273 270.966 51.2296 271.071 51.2296 271.18V275.562L46.9609 271.899C46.9198 271.863 46.8721 271.836 46.8206 271.819C46.7691 271.802 46.7147 271.795 46.6606 271.8C46.6065 271.804 46.5537 271.818 46.5053 271.843C46.4569 271.867 46.4138 271.901 46.3784 271.942C46.3431 271.983 46.3162 272.031 46.2993 272.083C46.2825 272.134 46.2759 272.189 46.2801 272.243C46.2843 272.297 46.2991 272.35 46.3237 272.398C46.3483 272.446 46.3822 272.489 46.4235 272.525L51.2296 276.65V279.224C51.2294 279.278 51.24 279.332 51.2606 279.382C51.2813 279.432 51.3116 279.478 51.35 279.517C51.3883 279.555 51.4338 279.585 51.4839 279.606C51.5341 279.627 51.5878 279.638 51.6421 279.638C51.6964 279.638 51.7501 279.627 51.8002 279.606C51.8503 279.585 51.8959 279.555 51.9342 279.517C51.9725 279.478 52.0029 279.432 52.0235 279.382C52.0442 279.332 52.0548 279.278 52.0546 279.224V271.18C52.0546 271.071 52.0111 270.966 51.9338 270.889C51.8564 270.811 51.7515 270.768 51.6421 270.768Z" fill="#3F3D56"/>
<path d="M74.0111 235.769C73.8663 235.769 73.7253 235.769 73.5805 235.765C63.866 235.656 54.5864 231.721 47.7545 224.813C40.9226 217.906 37.0892 208.584 37.0858 198.869C37.0858 188.143 41.5029 170.978 47.8274 157.125C52.3757 147.163 61.8255 130.45 74.0111 130.45C79.0303 130.45 84.0845 133.311 89.0333 138.953C89.2787 139.231 89.5246 139.518 89.7671 139.812L89.8502 139.912V232.203L89.6453 232.303C89.4007 232.421 89.1526 232.532 88.9045 232.64C84.3443 234.658 79.4194 235.722 74.4328 235.766C74.2972 235.769 74.1522 235.769 74.0111 235.769ZM74.0111 131.177C62.2319 131.177 52.9644 147.623 48.4885 157.427C42.2027 171.195 37.8125 188.236 37.8125 198.869C37.8125 218.591 53.8639 234.817 73.5936 235.039C73.7406 235.043 73.8778 235.044 74.0207 235.042C74.1526 235.042 74.2879 235.042 74.4196 235.039C79.3104 234.996 84.1406 233.953 88.6132 231.974C88.7847 231.9 88.9549 231.824 89.1235 231.746V140.174C88.9131 139.921 88.7003 139.674 88.4876 139.433C83.6822 133.954 78.8118 131.177 74.0111 131.177Z" fill="#3F3D56"/>
<path d="M74.0096 210.01C73.9496 210.01 73.8904 209.997 73.8358 209.973C73.7813 209.948 73.7327 209.911 73.6935 209.866L52.6678 185.618C52.5954 185.534 52.5592 185.425 52.5672 185.315C52.5752 185.204 52.6266 185.102 52.7103 185.029C52.794 184.957 52.903 184.92 53.0135 184.928C53.1239 184.936 53.2268 184.987 53.2996 185.07L74.3253 209.318C74.3778 209.379 74.4117 209.453 74.4231 209.532C74.4346 209.612 74.423 209.693 74.3897 209.766C74.3564 209.839 74.3029 209.9 74.2355 209.944C74.1682 209.987 74.0897 210.01 74.0096 210.01V210.01Z" fill="#CCCCCC"/>
<path d="M74.0094 224.004C73.9267 224.004 73.8459 223.979 73.7771 223.934C73.7084 223.888 73.6548 223.822 73.6232 223.746C73.5916 223.67 73.5833 223.585 73.5994 223.504C73.6155 223.423 73.6553 223.349 73.7138 223.29L85.661 211.343C85.7395 211.265 85.8457 211.221 85.9563 211.221C86.067 211.221 86.1731 211.265 86.2513 211.344C86.3296 211.422 86.3736 211.528 86.3738 211.639C86.3739 211.749 86.3302 211.856 86.2521 211.934L74.305 223.882C74.2662 223.92 74.2201 223.951 74.1694 223.972C74.1187 223.993 74.0643 224.004 74.0094 224.004Z" fill="#CCCCCC"/>
<path d="M106.841 63.2265L107.11 63.757C107.229 63.9859 107.292 64.2402 107.292 64.4983V78.8514H120.01V64.4983C120.01 64.2402 120.072 63.9859 120.191 63.757L120.46 63.2265H106.841ZM119.283 64.4983V78.1247H108.019V64.4983C108.019 64.3146 107.997 64.1316 107.953 63.9532H119.348C119.305 64.1316 119.283 64.3146 119.283 64.4983ZM122.829 63.2265L123.098 63.757C123.217 63.9859 123.28 64.2402 123.28 64.4983V78.8514H135.998V64.4983C135.998 64.2402 136.06 63.9859 136.179 63.757L136.448 63.2265H122.829ZM135.271 64.4983V78.1247H124.007V64.4983C124.007 64.3146 123.985 64.1316 123.941 63.9532H135.336C135.293 64.1316 135.271 64.3146 135.271 64.4983ZM138.817 63.2265L139.086 63.757C139.206 63.9859 139.268 64.2402 139.268 64.4983V78.8514H151.986V64.4983C151.986 64.2402 152.048 63.9859 152.168 63.757L152.437 63.2265H138.817ZM151.259 64.4983V78.1247H139.995V64.4983C139.995 64.3146 139.973 64.1316 139.929 63.9532H151.325C151.281 64.1316 151.259 64.3146 151.259 64.4983ZM154.805 63.2265L155.074 63.757C155.194 63.9859 155.256 64.2402 155.256 64.4983V78.8514H167.974V64.4983C167.974 64.2402 168.036 63.9859 168.156 63.757L168.425 63.2265H154.805ZM167.247 64.4983V78.1247H155.983V64.4983C155.983 64.3146 155.961 64.1316 155.917 63.9532H167.313C167.269 64.1316 167.247 64.3146 167.247 64.4983ZM170.794 63.2265L171.063 63.757C171.182 63.9859 171.244 64.2402 171.244 64.4983V78.8514H183.962V64.4983C183.962 64.2402 184.025 63.9859 184.144 63.757L184.413 63.2265H170.794ZM183.235 64.4983V78.1247H171.971V64.4983C171.971 64.3146 171.949 64.1316 171.906 63.9532H183.301C183.257 64.1316 183.235 64.3146 183.235 64.4983ZM186.782 63.2265L187.051 63.757C187.17 63.9859 187.232 64.2402 187.232 64.4983V78.8514H199.95V64.4983C199.95 64.2402 200.013 63.9859 200.132 63.757L200.401 63.2265H186.782ZM199.223 64.4983V78.1247H187.959V64.4983C187.959 64.3146 187.937 64.1316 187.894 63.9532H199.289C199.245 64.1316 199.223 64.3146 199.223 64.4983ZM202.77 63.2265L203.039 63.757C203.158 63.9859 203.22 64.2402 203.221 64.4983V78.8514H215.938V64.4983C215.939 64.2402 216.001 63.9859 216.12 63.757L216.389 63.2265H202.77ZM215.212 64.4983V78.1247H203.947V64.4983C203.947 64.3146 203.925 64.1316 203.882 63.9532H215.277C215.233 64.1316 215.211 64.3146 215.212 64.4983ZM218.758 63.2265L219.027 63.757C219.146 63.9859 219.208 64.2402 219.209 64.4983V78.8514H231.926V64.4983C231.927 64.2402 231.989 63.9859 232.108 63.757L232.377 63.2265H218.758ZM231.2 64.4983V78.1247H219.935V64.4983C219.936 64.3146 219.914 64.1316 219.87 63.9532H231.265C231.221 64.1316 231.2 64.3146 231.2 64.4983ZM234.746 63.2265L235.015 63.757C235.134 63.9859 235.197 64.2402 235.197 64.4983V78.8514H247.915V64.4983C247.915 64.2402 247.977 63.9859 248.096 63.757L248.365 63.2265H234.746ZM247.188 64.4983V78.1247H235.923V64.4983C235.924 64.3146 235.902 64.1316 235.858 63.9532H247.253C247.21 64.1316 247.188 64.3146 247.188 64.4983ZM234.746 63.2265L235.015 63.757C235.134 63.9859 235.197 64.2402 235.197 64.4983V78.8514H247.915V64.4983C247.915 64.2402 247.977 63.9859 248.096 63.757L248.365 63.2265H234.746ZM247.188 64.4983V78.1247H235.923V64.4983C235.924 64.3146 235.902 64.1316 235.858 63.9532H247.253C247.21 64.1316 247.188 64.3146 247.188 64.4983ZM218.758 63.2265L219.027 63.757C219.146 63.9859 219.208 64.2402 219.209 64.4983V78.8514H231.926V64.4983C231.927 64.2402 231.989 63.9859 232.108 63.757L232.377 63.2265H218.758ZM231.2 64.4983V78.1247H219.935V64.4983C219.936 64.3146 219.914 64.1316 219.87 63.9532H231.265C231.221 64.1316 231.2 64.3146 231.2 64.4983ZM202.77 63.2265L203.039 63.757C203.158 63.9859 203.22 64.2402 203.221 64.4983V78.8514H215.938V64.4983C215.939 64.2402 216.001 63.9859 216.12 63.757L216.389 63.2265H202.77ZM215.212 64.4983V78.1247H203.947V64.4983C203.947 64.3146 203.925 64.1316 203.882 63.9532H215.277C215.233 64.1316 215.211 64.3146 215.212 64.4983ZM186.782 63.2265L187.051 63.757C187.17 63.9859 187.232 64.2402 187.232 64.4983V78.8514H199.95V64.4983C199.95 64.2402 200.013 63.9859 200.132 63.757L200.401 63.2265H186.782ZM199.223 64.4983V78.1247H187.959V64.4983C187.959 64.3146 187.937 64.1316 187.894 63.9532H199.289C199.245 64.1316 199.223 64.3146 199.223 64.4983ZM170.794 63.2265L171.063 63.757C171.182 63.9859 171.244 64.2402 171.244 64.4983V78.8514H183.962V64.4983C183.962 64.2402 184.025 63.9859 184.144 63.757L184.413 63.2265H170.794ZM183.235 64.4983V78.1247H171.971V64.4983C171.971 64.3146 171.949 64.1316 171.906 63.9532H183.301C183.257 64.1316 183.235 64.3146 183.235 64.4983ZM154.805 63.2265L155.074 63.757C155.194 63.9859 155.256 64.2402 155.256 64.4983V78.8514H167.974V64.4983C167.974 64.2402 168.036 63.9859 168.156 63.757L168.425 63.2265H154.805ZM167.247 64.4983V78.1247H155.983V64.4983C155.983 64.3146 155.961 64.1316 155.917 63.9532H167.313C167.269 64.1316 167.247 64.3146 167.247 64.4983ZM138.817 63.2265L139.086 63.757C139.206 63.9859 139.268 64.2402 139.268 64.4983V78.8514H151.986V64.4983C151.986 64.2402 152.048 63.9859 152.168 63.757L152.437 63.2265H138.817ZM151.259 64.4983V78.1247H139.995V64.4983C139.995 64.3146 139.973 64.1316 139.929 63.9532H151.325C151.281 64.1316 151.259 64.3146 151.259 64.4983ZM122.829 63.2265L123.098 63.757C123.217 63.9859 123.28 64.2402 123.28 64.4983V78.8514H135.998V64.4983C135.998 64.2402 136.06 63.9859 136.179 63.757L136.448 63.2265H122.829ZM135.271 64.4983V78.1247H124.007V64.4983C124.007 64.3146 123.985 64.1316 123.941 63.9532H135.336C135.293 64.1316 135.271 64.3146 135.271 64.4983ZM106.841 63.2265L107.11 63.757C107.229 63.9859 107.292 64.2402 107.292 64.4983V78.8514H120.01V64.4983C120.01 64.2402 120.072 63.9859 120.191 63.757L120.46 63.2265H106.841ZM119.283 64.4983V78.1247H108.019V64.4983C108.019 64.3146 107.997 64.1316 107.953 63.9532H119.348C119.305 64.1316 119.283 64.3146 119.283 64.4983ZM234.746 63.2265L235.015 63.757C235.134 63.9859 235.197 64.2402 235.197 64.4983V78.8514H247.915V64.4983C247.915 64.2402 247.977 63.9859 248.096 63.757L248.365 63.2265H234.746ZM247.188 64.4983V78.1247H235.923V64.4983C235.924 64.3146 235.902 64.1316 235.858 63.9532H247.253C247.21 64.1316 247.188 64.3146 247.188 64.4983ZM218.758 63.2265L219.027 63.757C219.146 63.9859 219.208 64.2402 219.209 64.4983V78.8514H231.926V64.4983C231.927 64.2402 231.989 63.9859 232.108 63.757L232.377 63.2265H218.758ZM231.2 64.4983V78.1247H219.935V64.4983C219.936 64.3146 219.914 64.1316 219.87 63.9532H231.265C231.221 64.1316 231.2 64.3146 231.2 64.4983ZM202.77 63.2265L203.039 63.757C203.158 63.9859 203.22 64.2402 203.221 64.4983V78.8514H215.938V64.4983C215.939 64.2402 216.001 63.9859 216.12 63.757L216.389 63.2265H202.77ZM215.212 64.4983V78.1247H203.947V64.4983C203.947 64.3146 203.925 64.1316 203.882 63.9532H215.277C215.233 64.1316 215.211 64.3146 215.212 64.4983ZM186.782 63.2265L187.051 63.757C187.17 63.9859 187.232 64.2402 187.232 64.4983V78.8514H199.95V64.4983C199.95 64.2402 200.013 63.9859 200.132 63.757L200.401 63.2265H186.782ZM199.223 64.4983V78.1247H187.959V64.4983C187.959 64.3146 187.937 64.1316 187.894 63.9532H199.289C199.245 64.1316 199.223 64.3146 199.223 64.4983ZM170.794 63.2265L171.063 63.757C171.182 63.9859 171.244 64.2402 171.244 64.4983V78.8514H183.962V64.4983C183.962 64.2402 184.025 63.9859 184.144 63.757L184.413 63.2265H170.794ZM183.235 64.4983V78.1247H171.971V64.4983C171.971 64.3146 171.949 64.1316 171.906 63.9532H183.301C183.257 64.1316 183.235 64.3146 183.235 64.4983ZM154.805 63.2265L155.074 63.757C155.194 63.9859 155.256 64.2402 155.256 64.4983V78.8514H167.974V64.4983C167.974 64.2402 168.036 63.9859 168.156 63.757L168.425 63.2265H154.805ZM167.247 64.4983V78.1247H155.983V64.4983C155.983 64.3146 155.961 64.1316 155.917 63.9532H167.313C167.269 64.1316 167.247 64.3146 167.247 64.4983ZM138.817 63.2265L139.086 63.757C139.206 63.9859 139.268 64.2402 139.268 64.4983V78.8514H151.986V64.4983C151.986 64.2402 152.048 63.9859 152.168 63.757L152.437 63.2265H138.817ZM151.259 64.4983V78.1247H139.995V64.4983C139.995 64.3146 139.973 64.1316 139.929 63.9532H151.325C151.281 64.1316 151.259 64.3146 151.259 64.4983ZM122.829 63.2265L123.098 63.757C123.217 63.9859 123.28 64.2402 123.28 64.4983V78.8514H135.998V64.4983C135.998 64.2402 136.06 63.9859 136.179 63.757L136.448 63.2265H122.829ZM135.271 64.4983V78.1247H124.007V64.4983C124.007 64.3146 123.985 64.1316 123.941 63.9532H135.336C135.293 64.1316 135.271 64.3146 135.271 64.4983ZM106.841 63.2265L107.11 63.757C107.229 63.9859 107.292 64.2402 107.292 64.4983V78.8514H120.01V64.4983C120.01 64.2402 120.072 63.9859 120.191 63.757L120.46 63.2265H106.841ZM119.283 64.4983V78.1247H108.019V64.4983C108.019 64.3146 107.997 64.1316 107.953 63.9532H119.348C119.305 64.1316 119.283 64.3146 119.283 64.4983ZM234.746 63.2265L235.015 63.757C235.134 63.9859 235.197 64.2402 235.197 64.4983V78.8514H247.915V64.4983C247.915 64.2402 247.977 63.9859 248.096 63.757L248.365 63.2265H234.746ZM247.188 64.4983V78.1247H235.923V64.4983C235.924 64.3146 235.902 64.1316 235.858 63.9532H247.253C247.21 64.1316 247.188 64.3146 247.188 64.4983ZM218.758 63.2265L219.027 63.757C219.146 63.9859 219.208 64.2402 219.209 64.4983V78.8514H231.926V64.4983C231.927 64.2402 231.989 63.9859 232.108 63.757L232.377 63.2265H218.758ZM231.2 64.4983V78.1247H219.935V64.4983C219.936 64.3146 219.914 64.1316 219.87 63.9532H231.265C231.221 64.1316 231.2 64.3146 231.2 64.4983ZM202.77 63.2265L203.039 63.757C203.158 63.9859 203.22 64.2402 203.221 64.4983V78.8514H215.938V64.4983C215.939 64.2402 216.001 63.9859 216.12 63.757L216.389 63.2265H202.77ZM215.212 64.4983V78.1247H203.947V64.4983C203.947 64.3146 203.925 64.1316 203.882 63.9532H215.277C215.233 64.1316 215.211 64.3146 215.212 64.4983ZM186.782 63.2265L187.051 63.757C187.17 63.9859 187.232 64.2402 187.232 64.4983V78.8514H199.95V64.4983C199.95 64.2402 200.013 63.9859 200.132 63.757L200.401 63.2265H186.782ZM199.223 64.4983V78.1247H187.959V64.4983C187.959 64.3146 187.937 64.1316 187.894 63.9532H199.289C199.245 64.1316 199.223 64.3146 199.223 64.4983ZM170.794 63.2265L171.063 63.757C171.182 63.9859 171.244 64.2402 171.244 64.4983V78.8514H183.962V64.4983C183.962 64.2402 184.025 63.9859 184.144 63.757L184.413 63.2265H170.794ZM183.235 64.4983V78.1247H171.971V64.4983C171.971 64.3146 171.949 64.1316 171.906 63.9532H183.301C183.257 64.1316 183.235 64.3146 183.235 64.4983ZM154.805 63.2265L155.074 63.757C155.194 63.9859 155.256 64.2402 155.256 64.4983V78.8514H167.974V64.4983C167.974 64.2402 168.036 63.9859 168.156 63.757L168.425 63.2265H154.805ZM167.247 64.4983V78.1247H155.983V64.4983C155.983 64.3146 155.961 64.1316 155.917 63.9532H167.313C167.269 64.1316 167.247 64.3146 167.247 64.4983ZM138.817 63.2265L139.086 63.757C139.206 63.9859 139.268 64.2402 139.268 64.4983V78.8514H151.986V64.4983C151.986 64.2402 152.048 63.9859 152.168 63.757L152.437 63.2265H138.817ZM151.259 64.4983V78.1247H139.995V64.4983C139.995 64.3146 139.973 64.1316 139.929 63.9532H151.325C151.281 64.1316 151.259 64.3146 151.259 64.4983ZM122.829 63.2265L123.098 63.757C123.217 63.9859 123.28 64.2402 123.28 64.4983V78.8514H135.998V64.4983C135.998 64.2402 136.06 63.9859 136.179 63.757L136.448 63.2265H122.829ZM135.271 64.4983V78.1247H124.007V64.4983C124.007 64.3146 123.985 64.1316 123.941 63.9532H135.336C135.293 64.1316 135.271 64.3146 135.271 64.4983ZM106.841 63.2265L107.11 63.757C107.229 63.9859 107.292 64.2402 107.292 64.4983V78.8514H120.01V64.4983C120.01 64.2402 120.072 63.9859 120.191 63.757L120.46 63.2265H106.841ZM119.283 64.4983V78.1247H108.019V64.4983C108.019 64.3146 107.997 64.1316 107.953 63.9532H119.348C119.305 64.1316 119.283 64.3146 119.283 64.4983ZM234.746 63.2265L235.015 63.757C235.134 63.9859 235.197 64.2402 235.197 64.4983V78.8514H247.915V64.4983C247.915 64.2402 247.977 63.9859 248.096 63.757L248.365 63.2265H234.746ZM247.188 64.4983V78.1247H235.923V64.4983C235.924 64.3146 235.902 64.1316 235.858 63.9532H247.253C247.21 64.1316 247.188 64.3146 247.188 64.4983ZM218.758 63.2265L219.027 63.757C219.146 63.9859 219.208 64.2402 219.209 64.4983V78.8514H231.926V64.4983C231.927 64.2402 231.989 63.9859 232.108 63.757L232.377 63.2265H218.758ZM231.2 64.4983V78.1247H219.935V64.4983C219.936 64.3146 219.914 64.1316 219.87 63.9532H231.265C231.221 64.1316 231.2 64.3146 231.2 64.4983ZM202.77 63.2265L203.039 63.757C203.158 63.9859 203.22 64.2402 203.221 64.4983V78.8514H215.938V64.4983C215.939 64.2402 216.001 63.9859 216.12 63.757L216.389 63.2265H202.77ZM215.212 64.4983V78.1247H203.947V64.4983C203.947 64.3146 203.925 64.1316 203.882 63.9532H215.277C215.233 64.1316 215.211 64.3146 215.212 64.4983ZM186.782 63.2265L187.051 63.757C187.17 63.9859 187.232 64.2402 187.232 64.4983V78.8514H199.95V64.4983C199.95 64.2402 200.013 63.9859 200.132 63.757L200.401 63.2265H186.782ZM199.223 64.4983V78.1247H187.959V64.4983C187.959 64.3146 187.937 64.1316 187.894 63.9532H199.289C199.245 64.1316 199.223 64.3146 199.223 64.4983ZM170.794 63.2265L171.063 63.757C171.182 63.9859 171.244 64.2402 171.244 64.4983V78.8514H183.962V64.4983C183.962 64.2402 184.025 63.9859 184.144 63.757L184.413 63.2265H170.794ZM183.235 64.4983V78.1247H171.971V64.4983C171.971 64.3146 171.949 64.1316 171.906 63.9532H183.301C183.257 64.1316 183.235 64.3146 183.235 64.4983ZM154.805 63.2265L155.074 63.757C155.194 63.9859 155.256 64.2402 155.256 64.4983V78.8514H167.974V64.4983C167.974 64.2402 168.036 63.9859 168.156 63.757L168.425 63.2265H154.805ZM167.247 64.4983V78.1247H155.983V64.4983C155.983 64.3146 155.961 64.1316 155.917 63.9532H167.313C167.269 64.1316 167.247 64.3146 167.247 64.4983ZM138.817 63.2265L139.086 63.757C139.206 63.9859 139.268 64.2402 139.268 64.4983V78.8514H151.986V64.4983C151.986 64.2402 152.048 63.9859 152.168 63.757L152.437 63.2265H138.817ZM151.259 64.4983V78.1247H139.995V64.4983C139.995 64.3146 139.973 64.1316 139.929 63.9532H151.325C151.281 64.1316 151.259 64.3146 151.259 64.4983ZM122.829 63.2265L123.098 63.757C123.217 63.9859 123.28 64.2402 123.28 64.4983V78.8514H135.998V64.4983C135.998 64.2402 136.06 63.9859 136.179 63.757L136.448 63.2265H122.829ZM135.271 64.4983V78.1247H124.007V64.4983C124.007 64.3146 123.985 64.1316 123.941 63.9532H135.336C135.293 64.1316 135.271 64.3146 135.271 64.4983ZM106.841 63.2265L107.11 63.757C107.229 63.9859 107.292 64.2402 107.292 64.4983V78.8514H120.01V64.4983C120.01 64.2402 120.072 63.9859 120.191 63.757L120.46 63.2265H106.841ZM119.283 64.4983V78.1247H108.019V64.4983C108.019 64.3146 107.997 64.1316 107.953 63.9532H119.348C119.305 64.1316 119.283 64.3146 119.283 64.4983ZM234.746 63.2265L235.015 63.757C235.134 63.9859 235.197 64.2402 235.197 64.4983V78.8514H247.915V64.4983C247.915 64.2402 247.977 63.9859 248.096 63.757L248.365 63.2265H234.746ZM247.188 64.4983V78.1247H235.923V64.4983C235.924 64.3146 235.902 64.1316 235.858 63.9532H247.253C247.21 64.1316 247.188 64.3146 247.188 64.4983ZM219.027 63.757C219.146 63.9859 219.208 64.2402 219.209 64.4983V78.8514H231.926V64.4983C231.927 64.2402 231.989 63.9859 232.108 63.757L232.377 63.2265H218.758L219.027 63.757ZM231.265 63.9532C231.221 64.1316 231.2 64.3146 231.2 64.4983V78.1247H219.935V64.4983C219.936 64.3146 219.914 64.1316 219.87 63.9532H231.265ZM203.039 63.757C203.158 63.9859 203.22 64.2402 203.221 64.4983V78.8514H215.938V64.4983C215.939 64.2402 216.001 63.9859 216.12 63.757L216.389 63.2265H202.77L203.039 63.757ZM215.277 63.9532C215.233 64.1316 215.211 64.3146 215.212 64.4983V78.1247H203.947V64.4983C203.947 64.3146 203.925 64.1316 203.882 63.9532H215.277ZM187.051 63.757C187.17 63.9859 187.232 64.2402 187.232 64.4983V78.8514H199.95V64.4983C199.95 64.2402 200.013 63.9859 200.132 63.757L200.401 63.2265H186.782L187.051 63.757ZM199.289 63.9532C199.245 64.1316 199.223 64.3146 199.223 64.4983V78.1247H187.959V64.4983C187.959 64.3146 187.937 64.1316 187.894 63.9532H199.289ZM171.063 63.757C171.182 63.9859 171.244 64.2402 171.244 64.4983V78.8514H183.962V64.4983C183.962 64.2402 184.025 63.9859 184.144 63.757L184.413 63.2265H170.794L171.063 63.757ZM183.301 63.9532C183.257 64.1316 183.235 64.3146 183.235 64.4983V78.1247H171.971V64.4983C171.971 64.3146 171.949 64.1316 171.906 63.9532H183.301ZM155.074 63.757C155.194 63.9859 155.256 64.2402 155.256 64.4983V78.8514H167.974V64.4983C167.974 64.2402 168.036 63.9859 168.156 63.757L168.425 63.2265H154.805L155.074 63.757ZM167.313 63.9532C167.269 64.1316 167.247 64.3146 167.247 64.4983V78.1247H155.983V64.4983C155.983 64.3146 155.961 64.1316 155.917 63.9532H167.313ZM139.086 63.757C139.206 63.9859 139.268 64.2402 139.268 64.4983V78.8514H151.986V64.4983C151.986 64.2402 152.048 63.9859 152.168 63.757L152.437 63.2265H138.817L139.086 63.757ZM151.325 63.9532C151.281 64.1316 151.259 64.3146 151.259 64.4983V78.1247H139.995V64.4983C139.995 64.3146 139.973 64.1316 139.929 63.9532H151.325ZM123.098 63.757C123.217 63.9859 123.28 64.2402 123.28 64.4983V78.8514H135.998V64.4983C135.998 64.2402 136.06 63.9859 136.179 63.757L136.448 63.2265H122.829L123.098 63.757ZM135.336 63.9532C135.293 64.1316 135.271 64.3146 135.271 64.4983V78.1247H124.007V64.4983C124.007 64.3146 123.985 64.1316 123.941 63.9532H135.336ZM107.11 63.757C107.229 63.9859 107.292 64.2402 107.292 64.4983V78.8514H120.01V64.4983C120.01 64.2402 120.072 63.9859 120.191 63.757L120.46 63.2265H106.841L107.11 63.757ZM119.348 63.9532C119.305 64.1316 119.283 64.3146 119.283 64.4983V78.1247H108.019V64.4983C108.019 64.3146 107.997 64.1316 107.953 63.9532H119.348ZM235.015 63.757C235.134 63.9859 235.197 64.2402 235.197 64.4983V78.8514H247.915V64.4983C247.915 64.2402 247.977 63.9859 248.096 63.757L248.365 63.2265H234.746L235.015 63.757ZM247.253 63.9532C247.21 64.1316 247.188 64.3146 247.188 64.4983V78.1247H235.923V64.4983C235.924 64.3146 235.902 64.1316 235.858 63.9532H247.253ZM219.027 63.757C219.146 63.9859 219.208 64.2402 219.209 64.4983V78.8514H231.926V64.4983C231.927 64.2402 231.989 63.9859 232.108 63.757L232.377 63.2265H218.758L219.027 63.757ZM231.265 63.9532C231.221 64.1316 231.2 64.3146 231.2 64.4983V78.1247H219.935V64.4983C219.936 64.3146 219.914 64.1316 219.87 63.9532H231.265ZM203.039 63.757C203.158 63.9859 203.22 64.2402 203.221 64.4983V78.8514H215.938V64.4983C215.939 64.2402 216.001 63.9859 216.12 63.757L216.389 63.2265H202.77L203.039 63.757ZM215.277 63.9532C215.233 64.1316 215.211 64.3146 215.212 64.4983V78.1247H203.947V64.4983C203.947 64.3146 203.925 64.1316 203.882 63.9532H215.277ZM187.051 63.757C187.17 63.9859 187.232 64.2402 187.232 64.4983V78.8514H199.95V64.4983C199.95 64.2402 200.013 63.9859 200.132 63.757L200.401 63.2265H186.782L187.051 63.757ZM199.289 63.9532C199.245 64.1316 199.223 64.3146 199.223 64.4983V78.1247H187.959V64.4983C187.959 64.3146 187.937 64.1316 187.894 63.9532H199.289ZM171.063 63.757C171.182 63.9859 171.244 64.2402 171.244 64.4983V78.8514H183.962V64.4983C183.962 64.2402 184.025 63.9859 184.144 63.757L184.413 63.2265H170.794L171.063 63.757ZM183.301 63.9532C183.257 64.1316 183.235 64.3146 183.235 64.4983V78.1247H171.971V64.4983C171.971 64.3146 171.949 64.1316 171.906 63.9532H183.301ZM155.074 63.757C155.194 63.9859 155.256 64.2402 155.256 64.4983V78.8514H167.974V64.4983C167.974 64.2402 168.036 63.9859 168.156 63.757L168.425 63.2265H154.805L155.074 63.757ZM167.313 63.9532C167.269 64.1316 167.247 64.3146 167.247 64.4983V78.1247H155.983V64.4983C155.983 64.3146 155.961 64.1316 155.917 63.9532H167.313ZM139.086 63.757C139.206 63.9859 139.268 64.2402 139.268 64.4983V78.8514H151.986V64.4983C151.986 64.2402 152.048 63.9859 152.168 63.757L152.437 63.2265H138.817L139.086 63.757ZM151.325 63.9532C151.281 64.1316 151.259 64.3146 151.259 64.4983V78.1247H139.995V64.4983C139.995 64.3146 139.973 64.1316 139.929 63.9532H151.325ZM123.098 63.757C123.217 63.9859 123.28 64.2402 123.28 64.4983V78.8514H135.998V64.4983C135.998 64.2402 136.06 63.9859 136.179 63.757L136.448 63.2265H122.829L123.098 63.757ZM135.336 63.9532C135.293 64.1316 135.271 64.3146 135.271 64.4983V78.1247H124.007V64.4983C124.007 64.3146 123.985 64.1316 123.941 63.9532H135.336ZM107.11 63.757C107.229 63.9859 107.292 64.2402 107.292 64.4983V78.8514H120.01V64.4983C120.01 64.2402 120.072 63.9859 120.191 63.757L120.46 63.2265H106.841L107.11 63.757ZM119.348 63.9532C119.305 64.1316 119.283 64.3146 119.283 64.4983V78.1247H108.019V64.4983C108.019 64.3146 107.997 64.1316 107.953 63.9532H119.348ZM262.449 81.0316H258.118C257.879 80.1957 257.375 79.4601 256.681 78.9358C255.988 78.4114 255.143 78.1267 254.273 78.1247H251.912V64.4983C251.913 64.2058 251.857 63.9158 251.748 63.6444C252.16 63.4019 252.48 63.0307 252.66 62.588C252.84 62.1453 252.869 61.6558 252.743 61.1949C252.617 60.734 252.343 60.3274 251.963 60.0379C251.582 59.7483 251.118 59.5919 250.64 59.5928H104.567C104.089 59.5919 103.624 59.7483 103.244 60.0379C102.864 60.3274 102.59 60.734 102.463 61.1949C102.337 61.6558 102.367 62.1453 102.546 62.588C102.726 63.0307 103.047 63.4019 103.458 63.6444C103.349 63.9158 103.294 64.2058 103.295 64.4983V78.1247H100.933C100.064 78.1267 99.2184 78.4114 98.5249 78.9358C97.8315 79.4601 97.3273 80.1957 97.0884 81.0316H92.3938C91.5268 81.0329 90.6958 81.3779 90.0828 81.9909C89.4697 82.604 89.1248 83.435 89.1235 84.302V276.162C89.1254 277.028 89.4705 277.859 90.0834 278.472C90.6963 279.085 91.527 279.43 92.3938 279.432H262.449C263.316 279.431 264.147 279.086 264.76 278.473C265.373 277.86 265.718 277.029 265.72 276.162V84.302C265.718 83.435 265.373 82.604 264.76 81.9909C264.147 81.3779 263.316 81.0329 262.449 81.0316ZM264.993 276.162C264.992 276.681 264.833 277.188 264.536 277.614C264.239 278.04 263.819 278.365 263.332 278.545C263.05 278.653 262.751 278.707 262.449 278.705H92.3938C92.0921 278.707 91.7927 278.653 91.5107 278.545C91.0239 278.365 90.6038 278.04 90.307 277.614C90.0102 277.188 89.8508 276.681 89.8502 276.162V84.302C89.851 83.6276 90.1192 82.9811 90.596 82.5042C91.0729 82.0273 91.7194 81.7591 92.3938 81.7584H97.6699L97.7281 81.4677C97.8808 80.73 98.2827 80.0674 98.8663 79.591C99.4499 79.1146 100.18 78.8534 100.933 78.8514H104.021V64.4983C104.022 64.2026 104.102 63.9125 104.254 63.6589L104.479 63.2846L104.069 63.132C103.748 63.0157 103.478 62.7899 103.308 62.4944C103.137 62.1988 103.076 61.8525 103.135 61.5165C103.195 61.1804 103.371 60.8761 103.633 60.6571C103.895 60.4382 104.225 60.3186 104.567 60.3195H250.64C250.981 60.3186 251.312 60.4382 251.574 60.6571C251.835 60.8761 252.012 61.1804 252.071 61.5165C252.131 61.8525 252.07 62.1988 251.899 62.4944C251.728 62.7899 251.459 63.0157 251.138 63.132L250.727 63.2846L250.952 63.6589C251.104 63.9124 251.185 64.2026 251.185 64.4983V78.8514H254.273C255.027 78.8534 255.757 79.1145 256.34 79.5909C256.924 80.0673 257.326 80.73 257.478 81.4677L257.536 81.7584H262.449C263.124 81.7591 263.77 82.0273 264.247 82.5042C264.724 82.9811 264.992 83.6276 264.993 84.302L264.993 276.162ZM106.841 63.2265L107.11 63.757C107.229 63.9859 107.292 64.2402 107.292 64.4983V78.8514H120.01V64.4983C120.01 64.2402 120.072 63.9859 120.191 63.757L120.46 63.2265H106.841ZM119.283 64.4983V78.1247H108.019V64.4983C108.019 64.3146 107.997 64.1316 107.953 63.9532H119.348C119.305 64.1316 119.283 64.3146 119.283 64.4983ZM122.829 63.2265L123.098 63.757C123.217 63.9859 123.28 64.2402 123.28 64.4983V78.8514H135.998V64.4983C135.998 64.2402 136.06 63.9859 136.179 63.757L136.448 63.2265H122.829ZM135.271 64.4983V78.1247H124.007V64.4983C124.007 64.3146 123.985 64.1316 123.941 63.9532H135.336C135.293 64.1316 135.271 64.3146 135.271 64.4983ZM138.817 63.2265L139.086 63.757C139.206 63.9859 139.268 64.2402 139.268 64.4983V78.8514H151.986V64.4983C151.986 64.2402 152.048 63.9859 152.168 63.757L152.437 63.2265H138.817ZM151.259 64.4983V78.1247H139.995V64.4983C139.995 64.3146 139.973 64.1316 139.929 63.9532H151.325C151.281 64.1316 151.259 64.3146 151.259 64.4983ZM154.805 63.2265L155.074 63.757C155.194 63.9859 155.256 64.2402 155.256 64.4983V78.8514H167.974V64.4983C167.974 64.2402 168.036 63.9859 168.156 63.757L168.425 63.2265H154.805ZM167.247 64.4983V78.1247H155.983V64.4983C155.983 64.3146 155.961 64.1316 155.917 63.9532H167.313C167.269 64.1316 167.247 64.3146 167.247 64.4983ZM170.794 63.2265L171.063 63.757C171.182 63.9859 171.244 64.2402 171.244 64.4983V78.8514H183.962V64.4983C183.962 64.2402 184.025 63.9859 184.144 63.757L184.413 63.2265H170.794ZM183.235 64.4983V78.1247H171.971V64.4983C171.971 64.3146 171.949 64.1316 171.906 63.9532H183.301C183.257 64.1316 183.235 64.3146 183.235 64.4983ZM186.782 63.2265L187.051 63.757C187.17 63.9859 187.232 64.2402 187.232 64.4983V78.8514H199.95V64.4983C199.95 64.2402 200.013 63.9859 200.132 63.757L200.401 63.2265H186.782ZM199.223 64.4983V78.1247H187.959V64.4983C187.959 64.3146 187.937 64.1316 187.894 63.9532H199.289C199.245 64.1316 199.223 64.3146 199.223 64.4983ZM202.77 63.2265L203.039 63.757C203.158 63.9859 203.22 64.2402 203.221 64.4983V78.8514H215.938V64.4983C215.939 64.2402 216.001 63.9859 216.12 63.757L216.389 63.2265H202.77ZM215.212 64.4983V78.1247H203.947V64.4983C203.947 64.3146 203.925 64.1316 203.882 63.9532H215.277C215.233 64.1316 215.211 64.3146 215.212 64.4983ZM218.758 63.2265L219.027 63.757C219.146 63.9859 219.208 64.2402 219.209 64.4983V78.8514H231.926V64.4983C231.927 64.2402 231.989 63.9859 232.108 63.757L232.377 63.2265H218.758ZM231.2 64.4983V78.1247H219.935V64.4983C219.936 64.3146 219.914 64.1316 219.87 63.9532H231.265C231.221 64.1316 231.2 64.3146 231.2 64.4983ZM234.746 63.2265L235.015 63.757C235.134 63.9859 235.197 64.2402 235.197 64.4983V78.8514H247.915V64.4983C247.915 64.2402 247.977 63.9859 248.096 63.757L248.365 63.2265H234.746ZM247.188 64.4983V78.1247H235.923V64.4983C235.924 64.3146 235.902 64.1316 235.858 63.9532H247.253C247.21 64.1316 247.188 64.3146 247.188 64.4983ZM106.841 63.2265L107.11 63.757C107.229 63.9859 107.292 64.2402 107.292 64.4983V78.8514H120.01V64.4983C120.01 64.2402 120.072 63.9859 120.191 63.757L120.46 63.2265H106.841ZM119.283 64.4983V78.1247H108.019V64.4983C108.019 64.3146 107.997 64.1316 107.953 63.9532H119.348C119.305 64.1316 119.283 64.3146 119.283 64.4983ZM122.829 63.2265L123.098 63.757C123.217 63.9859 123.28 64.2402 123.28 64.4983V78.8514H135.998V64.4983C135.998 64.2402 136.06 63.9859 136.179 63.757L136.448 63.2265H122.829ZM135.271 64.4983V78.1247H124.007V64.4983C124.007 64.3146 123.985 64.1316 123.941 63.9532H135.336C135.293 64.1316 135.271 64.3146 135.271 64.4983ZM138.817 63.2265L139.086 63.757C139.206 63.9859 139.268 64.2402 139.268 64.4983V78.8514H151.986V64.4983C151.986 64.2402 152.048 63.9859 152.168 63.757L152.437 63.2265H138.817ZM151.259 64.4983V78.1247H139.995V64.4983C139.995 64.3146 139.973 64.1316 139.929 63.9532H151.325C151.281 64.1316 151.259 64.3146 151.259 64.4983ZM154.805 63.2265L155.074 63.757C155.194 63.9859 155.256 64.2402 155.256 64.4983V78.8514H167.974V64.4983C167.974 64.2402 168.036 63.9859 168.156 63.757L168.425 63.2265H154.805ZM167.247 64.4983V78.1247H155.983V64.4983C155.983 64.3146 155.961 64.1316 155.917 63.9532H167.313C167.269 64.1316 167.247 64.3146 167.247 64.4983ZM170.794 63.2265L171.063 63.757C171.182 63.9859 171.244 64.2402 171.244 64.4983V78.8514H183.962V64.4983C183.962 64.2402 184.025 63.9859 184.144 63.757L184.413 63.2265H170.794ZM183.235 64.4983V78.1247H171.971V64.4983C171.971 64.3146 171.949 64.1316 171.906 63.9532H183.301C183.257 64.1316 183.235 64.3146 183.235 64.4983ZM186.782 63.2265L187.051 63.757C187.17 63.9859 187.232 64.2402 187.232 64.4983V78.8514H199.95V64.4983C199.95 64.2402 200.013 63.9859 200.132 63.757L200.401 63.2265H186.782ZM199.223 64.4983V78.1247H187.959V64.4983C187.959 64.3146 187.937 64.1316 187.894 63.9532H199.289C199.245 64.1316 199.223 64.3146 199.223 64.4983ZM202.77 63.2265L203.039 63.757C203.158 63.9859 203.22 64.2402 203.221 64.4983V78.8514H215.938V64.4983C215.939 64.2402 216.001 63.9859 216.12 63.757L216.389 63.2265H202.77ZM215.212 64.4983V78.1247H203.947V64.4983C203.947 64.3146 203.925 64.1316 203.882 63.9532H215.277C215.233 64.1316 215.211 64.3146 215.212 64.4983ZM218.758 63.2265L219.027 63.757C219.146 63.9859 219.208 64.2402 219.209 64.4983V78.8514H231.926V64.4983C231.927 64.2402 231.989 63.9859 232.108 63.757L232.377 63.2265H218.758ZM231.2 64.4983V78.1247H219.935V64.4983C219.936 64.3146 219.914 64.1316 219.87 63.9532H231.265C231.221 64.1316 231.2 64.3146 231.2 64.4983ZM234.746 63.2265L235.015 63.757C235.134 63.9859 235.197 64.2402 235.197 64.4983V78.8514H247.915V64.4983C247.915 64.2402 247.977 63.9859 248.096 63.757L248.365 63.2265H234.746ZM247.188 64.4983V78.1247H235.923V64.4983C235.924 64.3146 235.902 64.1316 235.858 63.9532H247.253C247.21 64.1316 247.188 64.3146 247.188 64.4983ZM106.841 63.2265L107.11 63.757C107.229 63.9859 107.292 64.2402 107.292 64.4983V78.8514H120.01V64.4983C120.01 64.2402 120.072 63.9859 120.191 63.757L120.46 63.2265H106.841ZM119.283 64.4983V78.1247H108.019V64.4983C108.019 64.3146 107.997 64.1316 107.953 63.9532H119.348C119.305 64.1316 119.283 64.3146 119.283 64.4983ZM122.829 63.2265L123.098 63.757C123.217 63.9859 123.28 64.2402 123.28 64.4983V78.8514H135.998V64.4983C135.998 64.2402 136.06 63.9859 136.179 63.757L136.448 63.2265H122.829ZM135.271 64.4983V78.1247H124.007V64.4983C124.007 64.3146 123.985 64.1316 123.941 63.9532H135.336C135.293 64.1316 135.271 64.3146 135.271 64.4983ZM138.817 63.2265L139.086 63.757C139.206 63.9859 139.268 64.2402 139.268 64.4983V78.8514H151.986V64.4983C151.986 64.2402 152.048 63.9859 152.168 63.757L152.437 63.2265H138.817ZM151.259 64.4983V78.1247H139.995V64.4983C139.995 64.3146 139.973 64.1316 139.929 63.9532H151.325C151.281 64.1316 151.259 64.3146 151.259 64.4983ZM154.805 63.2265L155.074 63.757C155.194 63.9859 155.256 64.2402 155.256 64.4983V78.8514H167.974V64.4983C167.974 64.2402 168.036 63.9859 168.156 63.757L168.425 63.2265H154.805ZM167.247 64.4983V78.1247H155.983V64.4983C155.983 64.3146 155.961 64.1316 155.917 63.9532H167.313C167.269 64.1316 167.247 64.3146 167.247 64.4983ZM170.794 63.2265L171.063 63.757C171.182 63.9859 171.244 64.2402 171.244 64.4983V78.8514H183.962V64.4983C183.962 64.2402 184.025 63.9859 184.144 63.757L184.413 63.2265H170.794ZM183.235 64.4983V78.1247H171.971V64.4983C171.971 64.3146 171.949 64.1316 171.906 63.9532H183.301C183.257 64.1316 183.235 64.3146 183.235 64.4983ZM186.782 63.2265L187.051 63.757C187.17 63.9859 187.232 64.2402 187.232 64.4983V78.8514H199.95V64.4983C199.95 64.2402 200.013 63.9859 200.132 63.757L200.401 63.2265H186.782ZM199.223 64.4983V78.1247H187.959V64.4983C187.959 64.3146 187.937 64.1316 187.894 63.9532H199.289C199.245 64.1316 199.223 64.3146 199.223 64.4983ZM202.77 63.2265L203.039 63.757C203.158 63.9859 203.22 64.2402 203.221 64.4983V78.8514H215.938V64.4983C215.939 64.2402 216.001 63.9859 216.12 63.757L216.389 63.2265H202.77ZM215.212 64.4983V78.1247H203.947V64.4983C203.947 64.3146 203.925 64.1316 203.882 63.9532H215.277C215.233 64.1316 215.211 64.3146 215.212 64.4983ZM218.758 63.2265L219.027 63.757C219.146 63.9859 219.208 64.2402 219.209 64.4983V78.8514H231.926V64.4983C231.927 64.2402 231.989 63.9859 232.108 63.757L232.377 63.2265H218.758ZM231.2 64.4983V78.1247H219.935V64.4983C219.936 64.3146 219.914 64.1316 219.87 63.9532H231.265C231.221 64.1316 231.2 64.3146 231.2 64.4983ZM234.746 63.2265L235.015 63.757C235.134 63.9859 235.197 64.2402 235.197 64.4983V78.8514H247.915V64.4983C247.915 64.2402 247.977 63.9859 248.096 63.757L248.365 63.2265H234.746ZM247.188 64.4983V78.1247H235.923V64.4983C235.924 64.3146 235.902 64.1316 235.858 63.9532H247.253C247.21 64.1316 247.188 64.3146 247.188 64.4983ZM106.841 63.2265L107.11 63.757C107.229 63.9859 107.292 64.2402 107.292 64.4983V78.8514H120.01V64.4983C120.01 64.2402 120.072 63.9859 120.191 63.757L120.46 63.2265H106.841ZM119.283 64.4983V78.1247H108.019V64.4983C108.019 64.3146 107.997 64.1316 107.953 63.9532H119.348C119.305 64.1316 119.283 64.3146 119.283 64.4983ZM122.829 63.2265L123.098 63.757C123.217 63.9859 123.28 64.2402 123.28 64.4983V78.8514H135.998V64.4983C135.998 64.2402 136.06 63.9859 136.179 63.757L136.448 63.2265H122.829ZM135.271 64.4983V78.1247H124.007V64.4983C124.007 64.3146 123.985 64.1316 123.941 63.9532H135.336C135.293 64.1316 135.271 64.3146 135.271 64.4983ZM138.817 63.2265L139.086 63.757C139.206 63.9859 139.268 64.2402 139.268 64.4983V78.8514H151.986V64.4983C151.986 64.2402 152.048 63.9859 152.168 63.757L152.437 63.2265H138.817ZM151.259 64.4983V78.1247H139.995V64.4983C139.995 64.3146 139.973 64.1316 139.929 63.9532H151.325C151.281 64.1316 151.259 64.3146 151.259 64.4983ZM154.805 63.2265L155.074 63.757C155.194 63.9859 155.256 64.2402 155.256 64.4983V78.8514H167.974V64.4983C167.974 64.2402 168.036 63.9859 168.156 63.757L168.425 63.2265H154.805ZM167.247 64.4983V78.1247H155.983V64.4983C155.983 64.3146 155.961 64.1316 155.917 63.9532H167.313C167.269 64.1316 167.247 64.3146 167.247 64.4983ZM170.794 63.2265L171.063 63.757C171.182 63.9859 171.244 64.2402 171.244 64.4983V78.8514H183.962V64.4983C183.962 64.2402 184.025 63.9859 184.144 63.757L184.413 63.2265H170.794ZM183.235 64.4983V78.1247H171.971V64.4983C171.971 64.3146 171.949 64.1316 171.906 63.9532H183.301C183.257 64.1316 183.235 64.3146 183.235 64.4983ZM186.782 63.2265L187.051 63.757C187.17 63.9859 187.232 64.2402 187.232 64.4983V78.8514H199.95V64.4983C199.95 64.2402 200.013 63.9859 200.132 63.757L200.401 63.2265H186.782ZM199.223 64.4983V78.1247H187.959V64.4983C187.959 64.3146 187.937 64.1316 187.894 63.9532H199.289C199.245 64.1316 199.223 64.3146 199.223 64.4983ZM202.77 63.2265L203.039 63.757C203.158 63.9859 203.22 64.2402 203.221 64.4983V78.8514H215.938V64.4983C215.939 64.2402 216.001 63.9859 216.12 63.757L216.389 63.2265H202.77ZM215.212 64.4983V78.1247H203.947V64.4983C203.947 64.3146 203.925 64.1316 203.882 63.9532H215.277C215.233 64.1316 215.211 64.3146 215.212 64.4983ZM218.758 63.2265L219.027 63.757C219.146 63.9859 219.208 64.2402 219.209 64.4983V78.8514H231.926V64.4983C231.927 64.2402 231.989 63.9859 232.108 63.757L232.377 63.2265H218.758ZM231.2 64.4983V78.1247H219.935V64.4983C219.936 64.3146 219.914 64.1316 219.87 63.9532H231.265C231.221 64.1316 231.2 64.3146 231.2 64.4983ZM234.746 63.2265L235.015 63.757C235.134 63.9859 235.197 64.2402 235.197 64.4983V78.8514H247.915V64.4983C247.915 64.2402 247.977 63.9859 248.096 63.757L248.365 63.2265H234.746ZM247.188 64.4983V78.1247H235.923V64.4983C235.924 64.3146 235.902 64.1316 235.858 63.9532H247.253C247.21 64.1316 247.188 64.3146 247.188 64.4983Z" fill="#3F3D56"/>
<path d="M150.043 126.816H123.247C122.682 126.816 122.141 126.591 121.742 126.192C121.343 125.793 121.119 125.252 121.118 124.688V110.413C121.119 109.849 121.343 109.308 121.742 108.909C122.141 108.51 122.682 108.285 123.247 108.284H150.043C150.607 108.285 151.148 108.51 151.547 108.909C151.946 109.308 152.171 109.849 152.171 110.413V124.688C152.171 125.252 151.946 125.793 151.547 126.192C151.148 126.591 150.607 126.816 150.043 126.816Z" fill="#4A99F5"/>
<path d="M190.819 126.816H164.024C163.459 126.816 162.918 126.591 162.519 126.192C162.12 125.793 161.896 125.252 161.895 124.688V110.413C161.896 109.849 162.12 109.308 162.519 108.909C162.918 108.51 163.459 108.285 164.024 108.284H190.819C191.384 108.285 191.925 108.51 192.324 108.909C192.723 109.308 192.947 109.849 192.948 110.413V124.688C192.947 125.252 192.723 125.793 192.324 126.192C191.925 126.591 191.384 126.816 190.819 126.816Z" fill="#4A99F5"/>
<path d="M231.596 126.816H204.8C204.236 126.816 203.695 126.591 203.296 126.192C202.897 125.793 202.672 125.252 202.672 124.688V110.413C202.672 109.849 202.897 109.308 203.296 108.909C203.695 108.51 204.236 108.285 204.8 108.284H231.596C232.161 108.285 232.702 108.51 233.101 108.909C233.5 109.308 233.724 109.849 233.725 110.413V124.688C233.724 125.252 233.5 125.793 233.101 126.192C232.702 126.591 232.161 126.816 231.596 126.816Z" fill="#4A99F5"/>
<path d="M150.043 174.418H123.247C122.682 174.417 122.141 174.193 121.742 173.794C121.343 173.395 121.119 172.854 121.118 172.289V158.015C121.119 157.45 121.343 156.909 121.742 156.51C122.141 156.111 122.682 155.887 123.247 155.886H150.043C150.607 155.887 151.148 156.111 151.547 156.51C151.946 156.909 152.171 157.45 152.171 158.015V172.289C152.171 172.854 151.946 173.395 151.547 173.794C151.148 174.193 150.607 174.417 150.043 174.418Z" fill="#4A99F5"/>
<path d="M190.819 174.418H164.024C163.459 174.417 162.918 174.193 162.519 173.794C162.12 173.395 161.896 172.854 161.895 172.289V158.015C161.896 157.45 162.12 156.909 162.519 156.51C162.918 156.111 163.459 155.887 164.024 155.886H190.819C191.384 155.887 191.925 156.111 192.324 156.51C192.723 156.909 192.947 157.45 192.948 158.015V172.289C192.947 172.854 192.723 173.395 192.324 173.794C191.925 174.193 191.384 174.417 190.819 174.418Z" fill="#4A99F5"/>
<path d="M231.596 174.418H204.8C204.236 174.417 203.695 174.193 203.296 173.794C202.897 173.395 202.672 172.854 202.672 172.289V158.015C202.672 157.45 202.897 156.909 203.296 156.51C203.695 156.111 204.236 155.887 204.8 155.886H231.596C232.161 155.887 232.702 156.111 233.101 156.51C233.5 156.909 233.724 157.45 233.725 158.015V172.289C233.724 172.854 233.5 173.395 233.101 173.794C232.702 174.193 232.161 174.417 231.596 174.418Z" fill="#4A99F5"/>
<path d="M150.043 222.019H123.247C122.682 222.019 122.141 221.794 121.742 221.395C121.343 220.996 121.119 220.455 121.118 219.891V205.616C121.119 205.052 121.343 204.511 121.742 204.112C122.141 203.713 122.682 203.488 123.247 203.487H150.043C150.607 203.488 151.148 203.713 151.547 204.112C151.946 204.511 152.171 205.052 152.171 205.616V219.891C152.171 220.455 151.946 220.996 151.547 221.395C151.148 221.794 150.607 222.019 150.043 222.019Z" fill="#4A99F5"/>
<path d="M190.819 222.019H164.024C163.459 222.019 162.918 221.794 162.519 221.395C162.12 220.996 161.896 220.455 161.895 219.891V205.616C161.896 205.052 162.12 204.511 162.519 204.112C162.918 203.713 163.459 203.488 164.024 203.487H190.819C191.384 203.488 191.925 203.713 192.324 204.112C192.723 204.511 192.947 205.052 192.948 205.616V219.891C192.947 220.455 192.723 220.996 192.324 221.395C191.925 221.794 191.384 222.019 190.819 222.019Z" fill="#4A99F5"/>
<path d="M231.596 222.019H204.8C204.236 222.019 203.695 221.794 203.296 221.395C202.897 220.996 202.672 220.455 202.672 219.891V205.616C202.672 205.052 202.897 204.511 203.296 204.112C203.695 203.713 204.236 203.488 204.8 203.487H231.596C232.161 203.488 232.702 203.713 233.101 204.112C233.5 204.511 233.724 205.052 233.725 205.616V219.891C233.724 220.455 233.5 220.996 233.101 221.395C232.702 221.794 232.161 222.019 231.596 222.019Z" fill="#4A99F5"/>
<path d="M145.705 128.648H114.663C113.913 128.647 113.194 128.349 112.663 127.818C112.133 127.288 111.835 126.569 111.834 125.819V109.282C111.835 108.532 112.133 107.813 112.663 107.283C113.194 106.752 113.913 106.454 114.663 106.453H145.705C146.455 106.454 147.174 106.752 147.704 107.283C148.235 107.813 148.533 108.532 148.534 109.282V125.819C148.533 126.569 148.235 127.288 147.704 127.818C147.174 128.349 146.455 128.647 145.705 128.648ZM114.663 107.18C114.106 107.18 113.571 107.402 113.177 107.796C112.783 108.19 112.561 108.725 112.561 109.282V125.819C112.561 126.376 112.783 126.91 113.177 127.305C113.571 127.699 114.106 127.921 114.663 127.921H145.705C146.262 127.921 146.796 127.699 147.191 127.305C147.585 126.91 147.807 126.376 147.807 125.819V109.282C147.807 108.725 147.585 108.19 147.191 107.796C146.796 107.402 146.262 107.18 145.705 107.18H114.663Z" fill="#3F3D56"/>
<path d="M192.942 128.648H161.901C161.151 128.647 160.432 128.349 159.901 127.818C159.371 127.288 159.072 126.569 159.071 125.819V109.282C159.072 108.532 159.371 107.813 159.901 107.283C160.432 106.752 161.151 106.454 161.901 106.453H192.942C193.692 106.454 194.411 106.752 194.942 107.283C195.472 107.813 195.771 108.532 195.771 109.282V125.819C195.771 126.569 195.472 127.288 194.942 127.818C194.411 128.349 193.692 128.647 192.942 128.648ZM161.901 107.18C161.343 107.18 160.809 107.402 160.415 107.796C160.021 108.19 159.799 108.725 159.798 109.282V125.819C159.799 126.376 160.021 126.91 160.415 127.305C160.809 127.699 161.343 127.921 161.901 127.921H192.942C193.5 127.921 194.034 127.699 194.428 127.305C194.822 126.91 195.044 126.376 195.045 125.819V109.282C195.044 108.725 194.822 108.19 194.428 107.796C194.034 107.402 193.5 107.18 192.942 107.18H161.901Z" fill="#3F3D56"/>
<path d="M240.18 128.648H209.138C208.388 128.647 207.669 128.349 207.139 127.818C206.608 127.288 206.31 126.569 206.309 125.819V109.282C206.31 108.532 206.608 107.813 207.139 107.283C207.669 106.752 208.388 106.454 209.138 106.453H240.18C240.93 106.454 241.649 106.752 242.18 107.283C242.71 107.813 243.008 108.532 243.009 109.282V125.819C243.008 126.569 242.71 127.288 242.18 127.818C241.649 128.349 240.93 128.647 240.18 128.648ZM209.138 107.18C208.581 107.18 208.047 107.402 207.652 107.796C207.258 108.19 207.036 108.725 207.036 109.282V125.819C207.036 126.376 207.258 126.91 207.652 127.305C208.047 127.699 208.581 127.921 209.138 127.921H240.18C240.737 127.921 241.272 127.699 241.666 127.305C242.06 126.91 242.282 126.376 242.282 125.819V109.282C242.282 108.725 242.06 108.19 241.666 107.796C241.272 107.402 240.737 107.18 240.18 107.18H209.138Z" fill="#3F3D56"/>
<path d="M145.705 176.249H114.663C113.913 176.248 113.194 175.95 112.663 175.42C112.133 174.889 111.835 174.17 111.834 173.42V156.884C111.835 156.134 112.133 155.414 112.663 154.884C113.194 154.354 113.913 154.055 114.663 154.054H145.705C146.455 154.055 147.174 154.354 147.704 154.884C148.235 155.414 148.533 156.134 148.534 156.884V173.42C148.533 174.17 148.235 174.889 147.704 175.42C147.174 175.95 146.455 176.249 145.705 176.249ZM114.663 154.781C114.106 154.782 113.571 155.003 113.177 155.398C112.783 155.792 112.561 156.326 112.561 156.884V173.42C112.561 173.977 112.783 174.512 113.177 174.906C113.571 175.3 114.106 175.522 114.663 175.523H145.705C146.262 175.522 146.796 175.3 147.191 174.906C147.585 174.512 147.807 173.977 147.807 173.42V156.884C147.807 156.326 147.585 155.792 147.191 155.398C146.796 155.003 146.262 154.782 145.705 154.781H114.663Z" fill="#3F3D56"/>
<path d="M192.942 176.249H161.901C161.151 176.249 160.432 175.95 159.901 175.42C159.371 174.889 159.072 174.17 159.071 173.42V156.884C159.072 156.134 159.371 155.414 159.901 154.884C160.432 154.354 161.151 154.055 161.901 154.054H192.942C193.692 154.055 194.411 154.354 194.942 154.884C195.472 155.414 195.771 156.134 195.771 156.884V173.42C195.771 174.17 195.472 174.889 194.942 175.42C194.411 175.95 193.692 176.249 192.942 176.249ZM161.901 154.781C161.343 154.782 160.809 155.003 160.415 155.398C160.021 155.792 159.799 156.326 159.798 156.884V173.42C159.799 173.977 160.021 174.512 160.415 174.906C160.809 175.3 161.343 175.522 161.901 175.523H192.942C193.5 175.522 194.034 175.3 194.428 174.906C194.822 174.512 195.044 173.977 195.045 173.42V156.884C195.044 156.326 194.822 155.792 194.428 155.398C194.034 155.003 193.5 154.782 192.942 154.781H161.901Z" fill="#3F3D56"/>
<path d="M240.18 176.249H209.138C208.388 176.249 207.669 175.95 207.139 175.42C206.608 174.889 206.31 174.17 206.309 173.42V156.884C206.31 156.134 206.608 155.414 207.139 154.884C207.669 154.354 208.388 154.055 209.138 154.054H240.18C240.93 154.055 241.649 154.354 242.18 154.884C242.71 155.414 243.008 156.134 243.009 156.884V173.42C243.008 174.17 242.71 174.889 242.18 175.42C241.649 175.95 240.93 176.249 240.18 176.249ZM209.138 154.781C208.581 154.782 208.047 155.003 207.652 155.398C207.258 155.792 207.036 156.326 207.036 156.884V173.42C207.036 173.977 207.258 174.512 207.652 174.906C208.047 175.3 208.581 175.522 209.138 175.523H240.18C240.737 175.522 241.272 175.3 241.666 174.906C242.06 174.512 242.282 173.977 242.282 173.42V156.884C242.282 156.326 242.06 155.792 241.666 155.398C241.272 155.003 240.737 154.782 240.18 154.781H209.138Z" fill="#3F3D56"/>
<path d="M145.705 223.851H114.663C113.913 223.85 113.194 223.552 112.663 223.021C112.133 222.491 111.835 221.772 111.834 221.022V204.485C111.835 203.735 112.133 203.016 112.663 202.486C113.194 201.955 113.913 201.657 114.663 201.656H145.705C146.455 201.657 147.174 201.955 147.704 202.486C148.235 203.016 148.533 203.735 148.534 204.485V221.022C148.533 221.772 148.235 222.491 147.704 223.021C147.174 223.552 146.455 223.85 145.705 223.851ZM114.663 202.383C114.106 202.383 113.571 202.605 113.177 202.999C112.783 203.393 112.561 203.928 112.561 204.485V221.022C112.561 221.579 112.783 222.113 113.177 222.508C113.571 222.902 114.106 223.124 114.663 223.124H145.705C146.262 223.124 146.796 222.902 147.191 222.508C147.585 222.113 147.807 221.579 147.807 221.022V204.485C147.807 203.928 147.585 203.393 147.191 202.999C146.796 202.605 146.262 202.383 145.705 202.383H114.663Z" fill="#3F3D56"/>
<path d="M192.942 223.851H161.901C161.151 223.85 160.432 223.552 159.901 223.021C159.371 222.491 159.072 221.772 159.071 221.022V204.485C159.072 203.735 159.371 203.016 159.901 202.486C160.432 201.955 161.151 201.657 161.901 201.656H192.942C193.692 201.657 194.411 201.955 194.942 202.486C195.472 203.016 195.771 203.735 195.771 204.485V221.022C195.771 221.772 195.472 222.491 194.942 223.021C194.411 223.552 193.692 223.85 192.942 223.851ZM161.901 202.383C161.343 202.383 160.809 202.605 160.415 202.999C160.021 203.393 159.799 203.928 159.798 204.485V221.022C159.799 221.579 160.021 222.113 160.415 222.508C160.809 222.902 161.343 223.124 161.901 223.124H192.942C193.5 223.124 194.034 222.902 194.428 222.508C194.822 222.113 195.044 221.579 195.045 221.022V204.485C195.044 203.928 194.822 203.393 194.428 202.999C194.034 202.605 193.5 202.383 192.942 202.383H161.901Z" fill="#3F3D56"/>
<path d="M240.18 223.851H209.138C208.388 223.85 207.669 223.552 207.139 223.021C206.608 222.491 206.31 221.772 206.309 221.022V204.485C206.31 203.735 206.608 203.016 207.139 202.486C207.669 201.955 208.388 201.657 209.138 201.656H240.18C240.93 201.657 241.649 201.955 242.18 202.486C242.71 203.016 243.008 203.735 243.009 204.485V221.022C243.008 221.772 242.71 222.491 242.18 223.021C241.649 223.552 240.93 223.85 240.18 223.851ZM209.138 202.383C208.581 202.383 208.047 202.605 207.652 202.999C207.258 203.393 207.036 203.928 207.036 204.485V221.022C207.036 221.579 207.258 222.113 207.652 222.508C208.047 222.902 208.581 223.124 209.138 223.124H240.18C240.737 223.124 241.272 222.902 241.666 222.508C242.06 222.113 242.282 221.579 242.282 221.022V204.485C242.282 203.928 242.06 203.393 241.666 202.999C241.272 202.605 240.737 202.383 240.18 202.383H209.138Z" fill="#3F3D56"/>
<path d="M366.637 279.977H0.363366C0.266996 279.977 0.174572 279.939 0.106427 279.871C0.0382829 279.802 0 279.71 0 279.614C0 279.517 0.0382829 279.425 0.106427 279.357C0.174572 279.289 0.266996 279.25 0.363366 279.25H366.637C366.733 279.25 366.825 279.289 366.894 279.357C366.962 279.425 367 279.517 367 279.614C367 279.71 366.962 279.802 366.894 279.871C366.825 279.939 366.733 279.977 366.637 279.977Z" fill="#3F3D56"/>
<path d="M195.771 244.806C195.781 243.977 195.462 243.178 194.883 242.584C194.303 241.991 193.512 241.652 192.683 241.641H177.421V279.25H195.771V244.806Z" fill="#3F3D56"/>
<path d="M177.785 278.887H158.708V244.912C158.709 243.997 159.073 243.119 159.72 242.472C160.367 241.825 161.245 241.461 162.16 241.46H177.785V278.887ZM159.435 278.16H177.058V242.186H162.16C161.438 242.187 160.745 242.475 160.234 242.986C159.723 243.496 159.436 244.189 159.435 244.912V278.16Z" fill="#3F3D56"/>
<path d="M161.07 262.717C161.672 262.717 162.16 262.229 162.16 261.627C162.16 261.025 161.672 260.537 161.07 260.537C160.468 260.537 159.98 261.025 159.98 261.627C159.98 262.229 160.468 262.717 161.07 262.717Z" fill="#3F3D56"/>
</g>
<defs>
<clipPath id="clip0_21_410">
<rect width="367" height="280" fill="white"/>
</clipPath>
</defs>
</svg>
