<svg width="364" height="229" viewBox="0 0 364 229" fill="none" xmlns="http://www.w3.org/2000/svg">
<g clip-path="url(#clip0_21_451)">
<path d="M198.248 91.8922C218.601 91.8922 235.1 75.4356 235.1 55.1353C235.1 34.835 218.601 18.3784 198.248 18.3784C177.895 18.3784 161.396 34.835 161.396 55.1353C161.396 75.4356 177.895 91.8922 198.248 91.8922Z" fill="white"/>
<path d="M197.93 229C227.439 229 251.361 227.158 251.361 224.886C251.361 222.614 227.439 220.772 197.93 220.772C168.421 220.772 144.499 222.614 144.499 224.886C144.499 227.158 168.421 229 197.93 229Z" fill="#4A99F5"/>
<path opacity="0.4" d="M39.9711 85.956C41.0945 79.0511 36.3932 72.5453 29.4704 71.4248C22.5476 70.3043 16.0249 74.9934 14.9015 81.8983C13.778 88.8031 18.4794 95.309 25.4021 96.4295C32.3249 97.55 38.8477 92.8608 39.9711 85.956Z" fill="#4A99F5"/>
<path d="M351.864 161.667C343.025 156.965 333.897 152.823 324.536 149.265C333.922 152.764 343.053 156.908 351.864 161.667Z" fill="#3F3D56"/>
<path opacity="0.4" d="M297.132 124.362C304.824 124.362 311.06 118.142 311.06 110.47C311.06 102.798 304.824 96.5786 297.132 96.5786C289.44 96.5786 283.204 102.798 283.204 110.47C283.204 118.142 289.44 124.362 297.132 124.362Z" fill="#4A99F5"/>
<path d="M298.683 217.323C299.759 221.291 303.446 223.749 303.446 223.749C303.446 223.749 305.388 219.772 304.311 215.804C303.235 211.836 299.548 209.378 299.548 209.378C299.548 209.378 297.607 213.354 298.683 217.323Z" fill="#3F3D56"/>
<path d="M300.265 216.47C303.218 219.337 303.579 223.745 303.579 223.745C303.579 223.745 299.151 223.504 296.198 220.637C293.244 217.769 292.884 213.361 292.884 213.361C292.884 213.361 297.311 213.602 300.265 216.47Z" fill="#4A99F5"/>
<path d="M2.13489 162.146V168.268L1.8299 168.597V162.082C1.93156 162.101 2.03324 162.127 2.13489 162.146Z" fill="#3F3D56"/>
<path d="M21.6921 222.89C21.6031 223.035 21.5078 223.181 21.4125 223.327H1.82993V162.45L2.13492 162.146L4.73364 165.093V160.783H12.9937V174.459L21.3363 183.908L21.4125 183.997C21.5142 184.314 21.6095 184.631 21.7048 184.948C21.7055 184.952 21.7077 184.957 21.7112 184.96C22.9623 188.954 23.989 193.014 24.7864 197.122C26.6036 206.812 26.3304 215.697 21.6921 222.89Z" fill="#CCCCCC"/>
<path d="M8.70578 195.796H3.4483V200.166H8.70578V195.796Z" fill="#3F3D56"/>
<path d="M8.70578 203.661H3.4483V208.031H8.70578V203.661Z" fill="#3F3D56"/>
<path d="M170.657 187.493L168.028 183.123L192.563 162.148C210.702 153.44 232.566 155.952 255.653 162.148V168.265L232.871 192.737L206.583 197.981L170.657 187.493Z" fill="#3F3D56"/>
<path d="M266.513 174.457C270.87 169.623 271.475 165.027 266.513 160.783H258.253V165.095L255.653 162.148L234.623 183.123L231.118 186.619L226.737 204.099L234.623 223.326H274.93V183.997L266.513 174.457Z" fill="#CCCCCC"/>
<path d="M168.028 183.123H234.623V223.326H168.028C159.972 214.632 164.157 198.786 168.028 183.123Z" fill="#F2F2F2"/>
<path d="M225.422 195.796H211.403V208.031H225.422V195.796Z" fill="#3F3D56"/>
<path d="M205.707 195.359H193.439V223.326H205.707V195.359Z" fill="#CCCCCC"/>
<path d="M179.42 199.729V195.359H174.162V199.729H178.981H179.42Z" fill="#3F3D56"/>
<path d="M178.981 203.224H174.162V207.595H179.42V203.224H178.981Z" fill="#3F3D56"/>
<path d="M188.182 195.359H182.924V199.729H188.182V195.359Z" fill="#3F3D56"/>
<path d="M188.182 203.224H182.924V207.594H188.182V203.224Z" fill="#3F3D56"/>
<path d="M253.462 200.166V195.796H248.205V200.166H253.024H253.462Z" fill="#3F3D56"/>
<path d="M253.024 203.662H248.205V208.031H253.462V203.662H253.024Z" fill="#3F3D56"/>
<path d="M262.225 195.796H256.967V200.166H262.225V195.796Z" fill="#3F3D56"/>
<path d="M262.225 203.661H256.967V208.031H262.225V203.661Z" fill="#3F3D56"/>
<path d="M52.0801 114.079L47.6991 110.583L72.2339 88.7336H134.447V107.961L94.1401 135.055L52.0801 114.079Z" fill="#3F3D56"/>
<path d="M145.79 100.99V89.17H137.53V92.065L134.447 88.7334L114.293 110.583L106.407 115.827L94.1794 204.933L112.62 223.326H155.477C162.044 190.379 167.251 156.533 155.477 111.457L145.79 100.99Z" fill="#CCCCCC"/>
<path d="M47.6987 110.583H114.293V223.326H47.6987C40.4114 179.526 36.8523 138.908 47.6987 110.583Z" fill="#F2F2F2"/>
<path d="M85.8154 195.796H73.548V223.326H85.8154V195.796Z" fill="#CCCCCC"/>
<path d="M60.4042 203.662V199.292H55.147V203.662H59.9664H60.4042Z" fill="#3F3D56"/>
<path d="M59.9664 207.157H55.147V211.528H60.4042V207.157H59.9664Z" fill="#3F3D56"/>
<path d="M69.1667 199.292H63.9092V203.661H69.1667V199.292Z" fill="#3F3D56"/>
<path d="M95.8925 207.157H91.0731V211.528H96.3302V207.157H95.8925Z" fill="#3F3D56"/>
<path d="M105.093 199.292H99.8353V203.661H105.093V199.292Z" fill="#3F3D56"/>
<path d="M105.093 207.157H99.8353V211.527H105.093V207.157Z" fill="#3F3D56"/>
<path d="M133.132 116.264V111.894H127.875V116.264H132.695H133.132Z" fill="#3F3D56"/>
<path d="M132.695 119.76H127.875V124.13H133.132V119.76H132.695Z" fill="#3F3D56"/>
<path d="M141.895 111.894H136.638V116.264H141.895V111.894Z" fill="#3F3D56"/>
<path d="M141.895 119.76H136.638V124.13H141.895V119.76Z" fill="#3F3D56"/>
<path d="M133.132 140.736V136.365H127.875V140.736H132.695H133.132Z" fill="#3F3D56"/>
<path d="M132.695 144.231H127.875V148.601H133.132V144.231H132.695Z" fill="#3F3D56"/>
<path d="M141.895 136.365H136.638V140.735H141.895V136.365Z" fill="#3F3D56"/>
<path d="M141.895 144.231H136.638V148.601H141.895V144.231Z" fill="#3F3D56"/>
<path d="M133.132 165.207V160.837H127.875V165.207H132.695H133.132Z" fill="#3F3D56"/>
<path d="M132.695 168.703H127.875V173.072H133.132V168.703H132.695Z" fill="#3F3D56"/>
<path d="M141.895 160.837H136.638V165.207H141.895V160.837Z" fill="#3F3D56"/>
<path d="M141.895 168.702H136.638V173.072H141.895V168.702Z" fill="#3F3D56"/>
<path d="M133.132 189.678V185.308H127.875V189.678H132.695H133.132Z" fill="#3F3D56"/>
<path d="M132.695 193.174H127.875V197.543H133.132V193.174H132.695Z" fill="#3F3D56"/>
<path d="M141.895 185.308H136.638V189.678H141.895V185.308Z" fill="#3F3D56"/>
<path d="M141.895 193.174H136.638V197.544H141.895V193.174Z" fill="#3F3D56"/>
<path d="M55.1468 116.264H105.969V126.752C89.6789 122.268 72.6915 122.589 55.1468 126.752V116.264Z" fill="#3F3D56"/>
<path d="M55.1468 137.239C71.009 141.901 87.9497 141.901 105.969 137.239V147.727H55.1468V137.239Z" fill="#3F3D56"/>
<path d="M55.1468 158.215H105.969V168.702C88.6489 163.186 71.6903 162.926 55.1468 168.702V158.215Z" fill="#3F3D56"/>
<path d="M55.1468 179.19C71.7215 185.561 88.6775 185.296 105.969 179.19V189.678H55.1468V179.19Z" fill="#3F3D56"/>
<path d="M328.291 160.97H364V178.131L360.81 179.127L350.199 182.43L333.552 178.584L316.924 174.74L308.143 172.711L303.759 171.094C307.406 166.102 314.04 162.177 328.291 160.97Z" fill="#3F3D56"/>
<path d="M364 171.094V223.327H303.759C303.74 223.295 303.727 223.265 303.708 223.233V223.23C303.694 223.194 303.677 223.158 303.657 223.124C302.717 221.236 301.874 219.353 301.128 217.475C294.806 201.582 295.493 186.109 303.759 171.094H364Z" fill="#F2F2F2"/>
<path d="M341.876 195.796H329.608V223.326H341.876V195.796Z" fill="#CCCCCC"/>
<path d="M316.465 203.662V199.292H311.208V203.662H316.027H316.465Z" fill="#3F3D56"/>
<path d="M316.027 207.157H311.208V211.528H316.465V207.157H316.027Z" fill="#3F3D56"/>
<path d="M325.227 199.292H319.97V203.661H325.227V199.292Z" fill="#3F3D56"/>
<path d="M325.227 207.157H319.97V211.527H325.227V207.157Z" fill="#3F3D56"/>
<path d="M352.391 203.662V199.292H347.134V203.662H351.953H352.391Z" fill="#3F3D56"/>
<path d="M351.953 207.157H347.134V211.528H352.391V207.157H351.953Z" fill="#3F3D56"/>
<path d="M361.153 199.292H355.896V203.661H361.153V199.292Z" fill="#3F3D56"/>
<path d="M361.153 207.157H355.896V211.527H361.153V207.157Z" fill="#3F3D56"/>
<path d="M316.926 140.69H324.478C331.926 140.69 339.07 143.641 344.337 148.895C349.604 154.148 352.563 161.273 352.563 168.702H316.926V140.69Z" fill="#3F3D56"/>
<path d="M88.1869 64.6414H95.739C103.188 64.6414 110.331 67.5926 115.598 72.8459C120.865 78.0993 123.824 85.2243 123.824 92.6536H88.1869V64.6414Z" fill="#3F3D56"/>
<path d="M208.91 134.986H216.462C223.911 134.986 231.054 137.938 236.321 143.191C241.588 148.444 244.547 155.569 244.547 162.999H208.91V134.986Z" fill="#3F3D56"/>
<path d="M352.563 179.19H316.926V189.678H352.563V179.19Z" fill="#3F3D56"/>
<path d="M364 222.892H1.83002V224.16H364V222.892Z" fill="#3F3D56"/>
<path d="M35.2327 172.824H33.9619V222.889H35.2327V172.824Z" fill="#3F3D56"/>
<path d="M79.7492 91.4416L134.948 88.7482L158.103 108.026L154.009 111.712L117.342 110.889L79.7492 91.4416Z" fill="#3F3D56"/>
<path d="M24.672 180.904L21.6984 183.585L21.3363 183.908L20.5802 184.593L1.82991 184.174V162.082C1.21994 161.949 0.60997 161.822 0 161.702L1.51858 161.626L1.82991 161.886L4.73363 164.3L12.9937 171.183L22.2194 178.864L24.672 180.904Z" fill="#3F3D56"/>
<path d="M200.473 164.322L255.671 161.628L278.826 180.906L274.733 184.592L238.065 183.769L200.473 164.322Z" fill="#3F3D56"/>
</g>
<defs>
<clipPath id="clip0_21_451">
<rect width="364" height="229" fill="white"/>
</clipPath>
</defs>
</svg>
