<svg width="367" height="184" viewBox="0 0 367 184" fill="none" xmlns="http://www.w3.org/2000/svg">
<g clip-path="url(#clip0_21_35)">
<path d="M100.203 150.49C110.166 150.49 118.243 142.365 118.243 132.341C118.243 122.318 110.166 114.192 100.203 114.192C90.2398 114.192 82.163 122.318 82.163 132.341C82.163 142.365 90.2398 150.49 100.203 150.49Z" fill="#E4E4E4"/>
<path opacity="0.2" d="M86.8829 120.219C85.2002 124.179 84.9719 128.612 86.2389 132.726C87.5059 136.84 90.1855 140.366 93.799 142.675C97.4126 144.984 101.724 145.925 105.964 145.33C110.204 144.736 114.095 142.643 116.943 139.428C115.915 141.847 114.376 144.013 112.434 145.775C110.492 147.536 108.192 148.852 105.693 149.631C103.195 150.41 100.559 150.633 97.9664 150.285C95.374 149.937 92.8879 149.026 90.6803 147.615C88.4726 146.204 86.5962 144.328 85.1811 142.115C83.7659 139.902 82.8459 137.406 82.4847 134.801C82.1235 132.195 82.3297 129.541 83.0892 127.023C83.8486 124.505 85.1431 122.184 86.8829 120.219Z" fill="black"/>
<path d="M100.253 132.342H100.302L101.194 183.797H99.3109L100.253 132.342Z" fill="#3F3D56"/>
<path d="M63.7028 116.645C83.7905 116.645 100.075 100.262 100.075 80.0532C100.075 59.8441 83.7905 43.4614 63.7028 43.4614C43.6151 43.4614 27.3309 59.8441 27.3309 80.0532C27.3309 100.262 43.6151 116.645 63.7028 116.645Z" fill="#E4E4E4"/>
<path opacity="0.2" d="M36.847 55.6127C33.4543 63.5967 32.994 72.5343 35.5485 80.8283C38.1029 89.1224 43.5056 96.2324 50.7911 100.888C58.0766 105.543 66.7701 107.441 75.3183 106.241C83.8664 105.042 91.7121 100.824 97.4533 94.3404C95.3808 99.2183 92.279 103.585 88.3626 107.137C84.4463 110.689 79.8091 113.342 74.7724 114.912C69.7357 116.482 64.4198 116.932 59.1932 116.23C53.9665 115.528 48.9541 113.692 44.503 110.848C40.052 108.003 36.2688 104.22 33.4156 99.7584C30.5624 95.2972 28.7075 90.2653 27.9792 85.0112C27.251 79.7572 27.6668 74.4067 29.198 69.3304C30.7292 64.2541 33.3392 59.5734 36.847 55.6127Z" fill="black"/>
<path d="M63.8027 80.053H63.9028L65.7015 183.797H61.9043L63.8027 80.053Z" fill="#3F3D56"/>
<path d="M303.504 130.1H136.791V179.819H303.504V130.1Z" fill="#F0F0F0"/>
<path d="M229.867 140.375H210.428V179.819H229.867V140.375Z" fill="#CACACA"/>
<path d="M293.785 71.4305H146.51V117.173H293.785V71.4305Z" fill="#F0F0F0"/>
<path d="M308.716 74.248H131.579C131.284 74.248 130.995 74.159 130.75 73.9925C130.504 73.826 130.315 73.5896 130.204 73.3136C130.094 73.0376 130.068 72.7347 130.13 72.4438C130.192 72.1529 130.339 71.8873 130.552 71.6811L178.963 24.8663V4.47477C178.964 4.07931 179.12 3.70018 179.398 3.42055C179.676 3.14092 180.053 2.98363 180.446 2.98318H190.001C190.394 2.98361 190.771 3.1409 191.049 3.42054C191.327 3.70017 191.483 4.07931 191.483 4.47477V12.7594L195.14 9.22339C201.124 3.43698 209.062 0.143404 217.361 0.00457369C225.66 -0.134257 233.703 2.89194 239.875 8.475L309.707 71.6471C309.93 71.8489 310.087 72.1139 310.157 72.4073C310.227 72.7007 310.207 73.0086 310.1 73.2903C309.992 73.5721 309.803 73.8145 309.556 73.9854C309.308 74.1564 309.015 74.2479 308.716 74.248V74.248Z" fill="#CACACA"/>
<path d="M185.388 83.0317C186.621 83.0317 187.842 83.2761 188.981 83.7508C190.121 84.2256 191.156 84.9214 192.028 85.7986C192.9 86.6758 193.591 87.7172 194.063 88.8634C194.535 90.0095 194.778 91.2379 194.778 92.4785V105.24H175.998V92.4785C175.998 91.2379 176.241 90.0095 176.713 88.8634C177.185 87.7172 177.876 86.6758 178.748 85.7986C179.62 84.9214 180.655 84.2256 181.795 83.7508C182.934 83.2761 184.155 83.0317 185.388 83.0317Z" fill="white"/>
<path d="M220.147 83.1975C222.638 83.1975 225.026 84.1928 226.787 85.9644C228.548 87.736 229.537 90.1388 229.537 92.6442V105.406H210.757V92.6442C210.757 90.1388 211.747 87.736 213.508 85.9644C215.269 84.1928 217.657 83.1975 220.147 83.1975Z" fill="white"/>
<path d="M254.907 83.3633C257.397 83.3633 259.785 84.3586 261.546 86.1302C263.307 87.9018 264.297 90.3046 264.297 92.81V105.571H245.517V92.81C245.517 90.3046 246.506 87.9018 248.267 86.1302C250.028 84.3586 252.416 83.3633 254.907 83.3633Z" fill="white"/>
<path d="M268.745 139.878C271.235 139.878 273.623 140.873 275.384 142.645C277.145 144.416 278.135 146.819 278.135 149.325V162.086H259.355V149.325C259.355 146.819 260.344 144.416 262.105 142.645C263.866 140.873 266.254 139.878 268.745 139.878Z" fill="white"/>
<path d="M175.833 139.878C178.324 139.878 180.712 140.873 182.473 142.645C184.234 144.416 185.223 146.819 185.223 149.325V162.086H166.443V149.325C166.443 148.084 166.686 146.856 167.158 145.71C167.63 144.563 168.322 143.522 169.194 142.645C170.066 141.768 171.101 141.072 172.24 140.597C173.379 140.122 174.6 139.878 175.833 139.878Z" fill="white"/>
<path d="M327.86 130.876L296.587 116.955C296.419 116.88 296.237 116.841 296.053 116.841H147.009C146.839 116.841 146.67 116.874 146.513 116.939L112.472 130.86C112.188 130.976 111.954 131.187 111.809 131.458C111.663 131.728 111.616 132.041 111.674 132.343C111.733 132.645 111.894 132.917 112.13 133.112C112.366 133.307 112.662 133.414 112.968 133.414H121.8V179.156H120.811V183.797H319.483V179.156H317.836V133.414H327.327C327.629 133.414 327.922 133.31 328.157 133.118C328.392 132.927 328.554 132.66 328.616 132.363C328.679 132.065 328.638 131.755 328.5 131.485C328.362 131.214 328.136 130.999 327.86 130.876ZM315.2 179.156H124.436V133.414H315.2V179.156Z" fill="#CACACA"/>
<path d="M197.084 103.417H173.033V107.394H197.084V103.417Z" fill="#CACACA"/>
<path d="M232.338 103.417H208.286V107.394H232.338V103.417Z" fill="#CACACA"/>
<path d="M267.591 103.417H243.54V107.394H267.591V103.417Z" fill="#CACACA"/>
<path d="M280.77 160.76H256.719V164.738H280.77V160.76Z" fill="#CACACA"/>
<path d="M187.53 160.76H163.478V164.738H187.53V160.76Z" fill="#CACACA"/>
<path d="M366.596 184H0.40374C0.296662 184 0.193969 183.957 0.118253 183.881C0.0425365 183.805 0 183.702 0 183.594C0 183.486 0.0425365 183.383 0.118253 183.307C0.193969 183.23 0.296662 183.188 0.40374 183.188H366.596C366.703 183.188 366.806 183.23 366.882 183.307C366.957 183.383 367 183.486 367 183.594C367 183.702 366.957 183.805 366.882 183.881C366.806 183.957 366.703 184 366.596 184Z" fill="#3F3D56"/>
<path d="M274.49 70.7486C274.49 71.0086 274.486 71.2726 274.481 71.5326C274.477 71.8453 274.469 72.154 274.457 72.4668C274.445 72.7389 274.433 73.007 274.417 73.275C274.368 74.1727 274.292 75.0664 274.187 75.964C274.163 76.1914 274.134 76.4149 274.102 76.6423C274.078 76.817 274.053 76.9957 274.025 77.1744C273.997 77.3735 273.969 77.5725 273.936 77.7715C273.872 78.194 273.799 78.6164 273.718 79.0388C273.678 79.25 273.638 79.4612 273.593 79.6724C273.508 80.0908 273.416 80.5132 273.319 80.9316C273.311 80.9641 273.303 81.0006 273.295 81.0332C273.246 81.2403 273.198 81.4434 273.145 81.6506C273.129 81.7114 273.117 81.7684 273.097 81.8293C273.06 81.9836 273.02 82.1379 272.98 82.2923C272.923 82.5076 272.867 82.7188 272.806 82.934C272.709 83.2671 272.612 83.5962 272.511 83.9292C272.499 83.9638 272.488 83.9991 272.479 84.0348C272.285 84.6644 272.079 85.2859 271.853 85.9032C271.736 86.2282 271.611 86.5572 271.486 86.8821C271.361 87.2071 271.231 87.532 271.098 87.8529C270.969 88.1657 270.836 88.4784 270.703 88.7871C270.67 88.8602 270.638 88.9334 270.602 89.0065C270.46 89.3273 270.315 89.6401 270.166 89.9529C270.161 89.9569 270.161 89.965 270.157 89.9691C270.04 90.2209 269.915 90.4728 269.79 90.7205C269.79 90.7281 269.787 90.7353 269.782 90.7408C269.661 90.9846 269.536 91.2283 269.406 91.4679L269.201 91.8619L269.176 91.9066C268.918 92.3899 268.652 92.8693 268.369 93.3445C268.308 93.4501 268.248 93.5557 268.187 93.6572C268.127 93.7628 268.062 93.8684 267.997 93.97C267.957 94.0431 267.913 94.1162 267.864 94.1893C267.779 94.3274 267.695 94.4696 267.606 94.6076C267.59 94.6361 267.569 94.6646 267.553 94.693C267.4 94.9326 267.247 95.1682 267.093 95.4078C266.903 95.6962 266.709 95.9806 266.512 96.2649L262.127 103.324L261.937 103.166L261.885 103.117H261.881L261.707 102.971L261.231 102.565C261.085 102.707 260.944 102.849 260.799 102.987C260.742 103.044 260.682 103.097 260.625 103.154C260.581 103.194 260.54 103.235 260.496 103.276C252.916 110.723 242.832 115.035 232.242 115.359H232.23C224.213 115.581 216.277 113.697 209.205 109.892C209.047 109.811 208.894 109.73 208.74 109.636C207.82 109.133 206.92 108.601 206.035 108.032C206.031 108.028 206.027 108.028 206.023 108.024C204.998 107.293 203.996 106.513 203.019 105.684C197.778 101.239 193.631 95.6331 190.904 89.3054C188.177 82.9777 186.944 76.1006 187.302 69.2132C187.314 68.941 187.33 68.6729 187.35 68.4008C187.415 67.4178 187.514 66.4389 187.649 65.4641C187.685 65.192 187.726 64.9198 187.766 64.6517H274.078C274.247 65.8946 274.364 67.1443 274.429 68.4008C274.469 69.1848 274.49 69.9647 274.49 70.7486Z" fill="#F0F0F0"/>
<path d="M274.078 64.6518C272.524 54.2557 267.313 44.7658 259.394 37.907C251.475 31.0482 241.372 27.2759 230.922 27.2759C220.472 27.2759 210.369 31.0482 202.45 37.907C194.53 44.7658 189.32 54.2557 187.766 64.6518C187.726 64.9199 187.685 65.192 187.649 65.4641C187.516 66.439 187.416 67.4179 187.35 68.4008H274.429C274.364 67.1457 274.247 65.8961 274.078 64.6518Z" fill="#4A99F5"/>
<path d="M233.749 109.891H208.742V89.7661C209.204 80.569 217.017 79.8263 224.359 80.3199C225.592 80.3198 226.813 80.5641 227.953 81.0388C229.092 81.5134 230.127 82.2092 230.999 83.0864C231.871 83.9636 232.562 85.005 233.034 86.1511C233.506 87.2972 233.749 88.5256 233.749 89.7661V109.891Z" fill="#4A99F5"/>
<path d="M208.74 95.5825V95.5865C208.74 95.5906 208.744 95.5906 208.748 95.5906L208.74 95.5825ZM198.683 64.6518C198.667 64.7533 198.647 64.8549 198.631 64.9564C198.647 64.8549 198.667 64.7533 198.687 64.6518H198.683ZM198.183 68.4008C198.171 68.5552 198.158 68.7095 198.15 68.8639C198.158 68.7095 198.171 68.5552 198.187 68.4008C198.186 68.3723 198.187 68.3438 198.191 68.3155C198.187 68.344 198.187 68.3724 198.183 68.4008ZM208.74 95.5865C208.74 95.5906 208.744 95.5906 208.748 95.5906L208.74 95.5825V95.5865ZM198.683 64.6518C198.667 64.7533 198.647 64.8549 198.631 64.9564C198.647 64.8549 198.667 64.7533 198.687 64.6518H198.683ZM198.15 68.8639C198.158 68.7095 198.171 68.5552 198.187 68.4008C198.186 68.3723 198.187 68.3438 198.191 68.3155C198.187 68.344 198.187 68.3724 198.183 68.4008C198.171 68.5552 198.158 68.7095 198.15 68.8639ZM322.882 143.585C322.803 143.501 322.72 143.423 322.632 143.349L322.628 143.345L302.634 126.371L302.118 125.932L300.151 124.263L299.659 123.844L296.857 121.464L296.09 120.814L294.503 119.466L293.691 118.775L286.037 112.281L281.648 108.556L281.058 108.056L268.127 97.0772C268.324 96.7929 268.518 96.5086 268.708 96.2202C268.861 95.9805 269.015 95.7449 269.168 95.5053C269.184 95.4769 269.205 95.4484 269.221 95.42C269.31 95.2818 269.394 95.1397 269.479 95.0016C269.528 94.9285 269.572 94.8554 269.612 94.7823C269.677 94.6807 269.742 94.5751 269.802 94.4695C269.863 94.368 269.923 94.2624 269.984 94.1568C270.266 93.6816 270.533 93.2022 270.791 92.7189L270.815 92.6742L271.021 92.2802C271.151 92.0406 271.276 91.7969 271.397 91.5531C271.402 91.5476 271.405 91.5404 271.405 91.5329C271.53 91.2851 271.655 91.0333 271.772 90.7814C271.776 90.7774 271.776 90.7692 271.78 90.7652C271.93 90.4524 272.075 90.1397 272.217 89.8188C272.253 89.7457 272.285 89.6726 272.317 89.5994C272.451 89.2907 272.584 88.978 272.713 88.6653C272.846 88.3444 272.976 88.0194 273.101 87.6944C273.226 87.3695 273.351 87.0405 273.468 86.7156C273.69 86.0941 273.899 85.4713 274.094 84.8471C274.103 84.8114 274.114 84.7761 274.126 84.7415C274.227 84.4085 274.324 84.0794 274.421 83.7463C274.481 83.5311 274.538 83.3199 274.595 83.1046C274.635 82.9503 274.675 82.7959 274.712 82.6416C274.732 82.5807 274.744 82.5238 274.76 82.4629C274.813 82.2557 274.861 82.0526 274.909 81.8455C274.918 81.8129 274.926 81.7764 274.934 81.7439C275.031 81.3256 275.123 80.9031 275.208 80.4847C275.253 80.2736 275.293 80.0623 275.333 79.8511C275.41 79.4287 275.487 79.0063 275.551 78.5838C275.584 78.3848 275.612 78.1858 275.64 77.9867C275.668 77.8081 275.693 77.6293 275.717 77.4546C275.749 77.2272 275.777 77.0038 275.802 76.7763C275.907 75.8787 275.983 74.9851 276.032 74.0874C276.048 73.8193 276.06 73.5512 276.072 73.2791C276.084 72.9663 276.092 72.6576 276.096 72.3449C276.1 72.0849 276.105 71.8209 276.105 71.5609C276.105 70.777 276.084 69.9971 276.044 69.2132C275.979 67.9581 275.862 66.7084 275.693 65.4642C274.246 54.8282 269.043 45.0711 261.035 37.9764C253.027 30.8817 242.749 26.9233 232.078 26.8248C221.408 26.7262 211.059 30.494 202.923 37.4395C194.787 44.385 189.407 54.0443 187.766 64.6518C187.726 64.9199 187.685 65.192 187.649 65.4642C187.516 66.439 187.416 67.4179 187.35 68.4008C187.33 68.673 187.314 68.9411 187.302 69.2132C186.944 76.1006 188.177 82.9778 190.904 89.3055C193.631 95.6331 197.778 101.239 203.019 105.684C203.996 106.513 204.998 107.293 206.023 108.024C206.027 108.028 206.031 108.028 206.035 108.032C206.379 108.276 206.722 108.515 207.069 108.751C207.622 109.116 208.179 109.474 208.74 109.815C208.785 109.839 208.829 109.868 208.874 109.892C209.358 110.185 209.847 110.465 210.335 110.737H210.339C212.158 111.743 214.045 112.617 215.988 113.353C221.686 115.51 227.764 116.469 233.845 116.172H233.857C240.955 115.826 247.866 113.769 254.008 110.172C254.9 109.653 255.78 109.096 256.64 108.503C256.854 108.357 257.072 108.207 257.282 108.056C257.541 107.873 257.799 107.683 258.057 107.492C258.061 107.492 258.061 107.488 258.065 107.488C258.085 107.471 258.105 107.457 258.126 107.443C258.3 107.309 258.477 107.175 258.647 107.045C258.691 107.012 258.736 106.98 258.78 106.943C258.792 106.935 258.803 106.926 258.812 106.915C258.913 106.842 259.01 106.761 259.111 106.683C259.212 106.606 259.309 106.525 259.41 106.444C259.427 106.433 259.443 106.421 259.458 106.407C259.571 106.314 259.684 106.224 259.797 106.131C259.914 106.038 260.028 105.94 260.137 105.847C260.25 105.753 260.359 105.66 260.472 105.562C260.569 105.481 260.67 105.396 260.766 105.306C260.799 105.282 260.827 105.254 260.859 105.225C260.872 105.213 260.885 105.202 260.9 105.193C261.033 105.079 261.162 104.961 261.291 104.843C261.324 104.815 261.352 104.786 261.384 104.758C261.582 104.579 261.78 104.401 261.974 104.214C262.018 104.173 262.066 104.128 262.111 104.088C262.155 104.047 262.196 104.007 262.24 103.966C262.297 103.909 262.357 103.856 262.414 103.799C262.559 103.661 262.7 103.519 262.846 103.377L263.322 103.783L263.496 103.929H263.5L263.552 103.978L263.742 104.137L266.56 106.533L266.621 106.586L266.669 106.622L266.988 106.895L267.626 107.439L268.264 107.979L268.357 108.056L271.324 110.575L271.736 110.924L274.599 113.353L289.416 125.932L289.933 126.371L310.213 143.585L315.413 148L317.347 149.641C317.757 149.991 318.232 150.255 318.744 150.42C319.256 150.584 319.796 150.646 320.332 150.601C320.868 150.555 321.389 150.404 321.867 150.156C322.345 149.908 322.769 149.567 323.116 149.154C323.406 148.811 323.637 148.421 323.798 148C324.092 147.255 324.161 146.439 323.998 145.654C323.835 144.87 323.447 144.15 322.882 143.585ZM205.93 49.4281C209.981 44.5992 215.307 41.0216 221.292 39.1087C227.278 37.1957 233.68 37.0254 239.757 38.6175C245.835 40.2095 251.342 43.499 255.64 48.1058C259.938 52.7126 262.854 58.4488 264.049 64.6518C264.101 64.9239 264.15 65.192 264.194 65.4641C264.36 66.4349 264.481 67.4179 264.554 68.4008C264.574 68.673 264.594 68.941 264.606 69.2132C264.642 69.8225 264.658 70.4358 264.658 71.0451C264.661 74.7409 264.052 78.4114 262.858 81.9063V81.9104C261.523 85.8291 259.473 89.463 256.814 92.6255C256.757 92.6905 256.701 92.7595 256.64 92.8245C256.107 93.4582 255.546 94.0674 254.969 94.6483C254.965 94.6524 254.961 94.6605 254.957 94.6645C254.759 94.8636 254.557 95.0667 254.355 95.2535C253.943 95.6556 253.523 96.0374 253.095 96.403C252.453 96.9676 251.795 97.497 251.121 97.9912C250.895 98.1577 250.669 98.3202 250.439 98.4826C250.213 98.6451 249.983 98.7995 249.752 98.9538C249.292 99.2625 248.824 99.559 248.351 99.8393C248.117 99.9814 247.875 100.12 247.637 100.254C247.399 100.392 247.156 100.522 246.914 100.648C246.672 100.778 246.43 100.903 246.183 101.025C245.695 101.273 245.202 101.505 244.702 101.72C244.451 101.834 244.201 101.939 243.951 102.037C243.793 102.102 243.64 102.167 243.482 102.224C243.421 102.252 243.357 102.277 243.292 102.297C243.208 102.333 243.123 102.366 243.038 102.394C243.011 102.407 242.982 102.418 242.953 102.427C242.78 102.496 242.61 102.557 242.433 102.618C242.178 102.711 241.924 102.796 241.665 102.878C241.407 102.963 241.153 103.044 240.894 103.117C240.636 103.198 240.373 103.272 240.115 103.341C239.853 103.414 239.594 103.483 239.332 103.544C239.053 103.617 238.775 103.682 238.492 103.743C238.246 103.8 238.003 103.848 237.757 103.893C237.527 103.942 237.293 103.982 237.063 104.023C236.74 104.08 236.417 104.133 236.09 104.177C235.912 104.206 235.739 104.23 235.561 104.246C235.484 104.259 235.411 104.267 235.339 104.275C235.113 104.307 234.887 104.332 234.665 104.352C234.604 104.356 234.548 104.364 234.491 104.368C234.245 104.393 233.994 104.413 233.748 104.433C233.219 104.47 232.694 104.494 232.165 104.506C231.899 104.51 231.628 104.514 231.362 104.514C231.096 104.514 230.829 104.51 230.563 104.502C230.563 104.502 230.563 104.506 230.559 104.502C230.554 104.506 230.554 104.506 230.55 104.502C230.55 104.503 230.549 104.503 230.549 104.504C230.548 104.504 230.547 104.504 230.546 104.504C230.546 104.504 230.545 104.504 230.544 104.504C230.544 104.503 230.543 104.503 230.542 104.502C230.529 104.506 230.515 104.506 230.502 104.502C230.312 104.502 230.122 104.494 229.937 104.482C229.8 104.478 229.658 104.474 229.517 104.462C229.327 104.453 229.137 104.441 228.948 104.425C228.887 104.425 228.827 104.417 228.766 104.413C228.738 104.412 228.709 104.41 228.681 104.405C228.487 104.389 228.29 104.372 228.096 104.352C227.999 104.344 227.898 104.336 227.801 104.324C227.506 104.291 227.211 104.254 226.921 104.214C226.59 104.173 226.259 104.125 225.932 104.064C225.778 104.043 225.629 104.015 225.479 103.986C225.282 103.954 225.084 103.917 224.886 103.877C224.68 103.836 224.474 103.796 224.268 103.747C224.103 103.71 223.933 103.674 223.768 103.633C223.687 103.617 223.606 103.596 223.529 103.576C223.105 103.475 222.686 103.365 222.27 103.243C222.007 103.17 221.745 103.093 221.486 103.012C221.131 102.902 220.78 102.784 220.429 102.658C220.291 102.614 220.158 102.565 220.021 102.512C219.884 102.467 219.75 102.414 219.613 102.362C219.488 102.317 219.363 102.268 219.242 102.219C219.04 102.142 218.842 102.061 218.644 101.98C218.236 101.813 217.837 101.639 217.437 101.452C217.211 101.342 216.985 101.237 216.763 101.127C215.887 100.7 215.024 100.227 214.175 99.7053C213.965 99.5793 213.755 99.4453 213.545 99.3113C213.282 99.1488 213.028 98.9782 212.774 98.8076C212.632 98.7102 212.495 98.6167 212.358 98.5192C212.104 98.3405 211.853 98.1577 211.607 97.9749C211.478 97.8815 211.348 97.784 211.223 97.6865C210.775 97.3453 210.335 96.9879 209.903 96.6223C209.697 96.4477 209.491 96.269 209.289 96.0862C209.205 96.0131 209.12 95.9359 209.035 95.8587C208.938 95.7694 208.841 95.6841 208.748 95.5907L208.74 95.5826C208.599 95.4566 208.458 95.3226 208.32 95.1885C208.107 94.9854 207.897 94.7783 207.695 94.5671C207.485 94.36 207.283 94.1447 207.085 93.9334C206.883 93.7222 206.689 93.507 206.5 93.2876C206.306 93.0723 206.116 92.853 205.93 92.6296C205.749 92.4184 205.571 92.1991 205.401 91.9838C204.99 91.472 204.597 90.9507 204.223 90.42C204.049 90.1763 203.883 89.9325 203.722 89.6848C203.548 89.4329 203.383 89.1771 203.225 88.9211C203.06 88.6653 202.902 88.4053 202.749 88.1413C202.745 88.1323 202.739 88.124 202.733 88.1169C202.43 87.601 202.139 87.0812 201.869 86.5531C201.59 86.017 201.328 85.4754 201.081 84.9284C200.956 84.6562 200.835 84.38 200.722 84.1039C200.488 83.5473 200.27 82.9909 200.068 82.4263C199.967 82.1542 199.874 81.882 199.781 81.6058C199.778 81.5875 199.773 81.5698 199.765 81.553C199.579 80.9925 199.41 80.4279 199.261 79.8593C199.256 79.8511 199.256 79.8431 199.252 79.8349C199.176 79.5546 199.103 79.2743 199.039 78.99C198.974 78.7423 198.917 78.4945 198.865 78.2427C198.804 77.9624 198.744 77.6821 198.691 77.3978C198.663 77.2516 198.635 77.1053 198.611 76.9591C198.586 76.8373 198.566 76.7113 198.546 76.5895C198.526 76.4677 198.506 76.3417 198.485 76.2158C198.445 75.968 198.409 75.7203 198.376 75.4725C198.336 75.18 198.304 74.8876 198.271 74.5911C198.235 74.2377 198.203 73.8843 198.174 73.5269C198.154 73.2872 198.142 73.0435 198.13 72.7998C198.118 72.5764 198.106 72.353 198.102 72.1296C198.098 72.1178 198.098 72.1049 198.102 72.0931C198.101 72.0926 198.101 72.0919 198.101 72.0912C198.1 72.0905 198.1 72.0898 198.1 72.089C198.1 72.0883 198.1 72.0875 198.101 72.0868C198.101 72.0861 198.101 72.0855 198.102 72.085C198.098 72.0809 198.098 72.0809 198.102 72.0768C198.101 72.0763 198.101 72.0757 198.101 72.075C198.1 72.0743 198.1 72.0735 198.1 72.0728C198.1 72.072 198.1 72.0713 198.101 72.0706C198.101 72.0699 198.101 72.0692 198.102 72.0687C198.098 71.9794 198.094 71.89 198.094 71.8007C198.086 71.5366 198.082 71.2726 198.082 71.0086C198.082 70.7689 198.086 70.5333 198.09 70.2937C198.098 69.9606 198.11 69.6276 198.126 69.2945C198.126 69.2214 198.134 69.1523 198.138 69.0792C198.142 69.0061 198.146 68.9371 198.15 68.8639C198.158 68.7096 198.17 68.5553 198.187 68.4009C198.186 68.3724 198.187 68.3439 198.191 68.3156C198.203 68.1409 198.219 67.9663 198.235 67.7916C198.267 67.4423 198.308 67.0889 198.352 66.7396C198.376 66.565 198.397 66.3903 198.425 66.2157C198.441 66.0938 198.461 65.9679 198.481 65.842C198.497 65.716 198.518 65.5901 198.542 65.4642C198.57 65.2977 198.598 65.1271 198.631 64.9565C198.647 64.8549 198.667 64.7534 198.687 64.6519C198.764 64.2457 198.849 63.8395 198.942 63.4333C199.034 63.0231 199.139 62.6169 199.252 62.2107C199.361 61.8005 199.483 61.3902 199.612 60.98C199.672 60.7728 199.737 60.5697 199.81 60.3666C199.943 59.9564 200.084 59.5502 200.242 59.1481C200.314 58.9491 200.391 58.746 200.476 58.547C200.637 58.1448 200.807 57.7427 200.98 57.3487C201.069 57.1497 201.158 56.9507 201.255 56.7516C201.437 56.3576 201.626 55.9636 201.832 55.5778C202.03 55.1838 202.244 54.7979 202.462 54.4161C202.68 54.0343 202.906 53.6525 203.145 53.2747C203.254 53.0879 203.375 52.897 203.5 52.7142C203.742 52.3405 203.996 51.9668 204.255 51.6013C204.776 50.8619 205.337 50.1349 205.93 49.4281ZM198.183 68.4008C198.171 68.5552 198.158 68.7095 198.15 68.8639C198.158 68.7095 198.171 68.5552 198.187 68.4008C198.186 68.3723 198.187 68.3438 198.191 68.3155C198.187 68.344 198.187 68.3724 198.183 68.4008ZM198.683 64.6518C198.667 64.7533 198.647 64.8549 198.631 64.9564C198.647 64.8549 198.667 64.7533 198.687 64.6518H198.683ZM208.74 95.5825V95.5865C208.74 95.5906 208.744 95.5906 208.748 95.5906L208.74 95.5825Z" fill="#3F3D56"/>
<path opacity="0.3" d="M209.904 96.6219C203.518 91.2003 199.392 83.5608 198.345 75.2205C197.299 66.8801 199.408 58.4488 204.255 51.6007C203.618 52.2456 203.003 52.9209 202.409 53.6268C199.59 56.988 197.456 60.875 196.13 65.0657C194.804 69.2565 194.312 73.6689 194.681 78.0512C195.05 82.4334 196.273 86.6996 198.281 90.6062C200.289 94.5128 203.042 97.9832 206.383 100.819C213.131 106.547 221.863 109.344 230.661 108.594C239.458 107.845 247.599 103.61 253.292 96.8213C253.885 96.1146 254.443 95.3908 254.967 94.6499C249.072 100.608 241.166 104.119 232.818 104.484C224.47 104.849 216.29 102.043 209.904 96.6219Z" fill="black"/>
</g>
<defs>
<clipPath id="clip0_21_35">
<rect width="367" height="184" fill="white"/>
</clipPath>
</defs>
</svg>
