<svg width="312" height="298" viewBox="0 0 312 298" fill="none" xmlns="http://www.w3.org/2000/svg">
<g clip-path="url(#clip0_21_532)">
<path d="M178.128 277.355C175.233 277.355 172.431 276.324 170.222 274.447C168.013 272.57 166.538 269.968 166.061 267.104L166.058 267.08L166.073 267.061C166.856 266.121 167.488 265.065 167.948 263.931C167.401 264.635 166.739 265.242 165.992 265.726L165.915 265.777L165.91 265.685C165.901 265.482 165.896 265.28 165.896 265.085C165.889 262.998 166.416 260.945 167.426 259.121C168.436 257.297 169.895 255.763 171.665 254.666C169.87 252.788 168.519 250.528 167.713 248.055C166.907 245.582 166.666 242.958 167.008 240.379C167.349 237.799 168.266 235.33 169.688 233.154C171.11 230.978 173.003 229.151 175.225 227.809C177.447 226.466 179.941 225.642 182.524 225.397C185.106 225.153 187.711 225.495 190.144 226.397C192.577 227.299 194.776 228.739 196.579 230.61C198.382 232.481 199.742 234.735 200.559 237.204L200.574 237.251L200.529 237.27C199.487 237.72 198.366 237.957 197.232 237.966C198.413 238.302 199.639 238.45 200.866 238.407L200.908 238.405L200.918 238.446C201.261 239.825 201.434 241.241 201.434 242.662C201.434 242.713 201.433 242.765 201.433 242.816C201.43 243.921 201.659 245.014 202.105 246.024C202.551 247.034 203.204 247.939 204.022 248.679C205.329 249.872 206.363 251.334 207.052 252.966C207.742 254.597 208.071 256.359 208.016 258.131C207.962 259.902 207.526 261.64 206.738 263.226C205.95 264.813 204.829 266.209 203.451 267.318L203.426 267.339L203.397 267.325C201.589 266.502 200.329 265.583 199.471 264.455C200.051 265.876 200.897 267.172 201.963 268.273L202.009 268.321L201.951 268.355C200.123 269.423 198.051 269.998 195.935 270.023C193.82 270.048 191.734 269.523 189.881 268.499C189.136 271.05 187.59 273.29 185.472 274.886C183.353 276.482 180.777 277.348 178.128 277.355Z" fill="#F2F2F2"/>
<path d="M173.77 296.9C173.717 296.9 173.665 296.88 173.625 296.845C173.584 296.81 173.558 296.761 173.55 296.708C172.969 291.51 172.935 286.264 173.447 281.058C174.214 272.846 176.677 261.017 184.057 251.302C184.075 251.279 184.097 251.259 184.122 251.244C184.147 251.229 184.175 251.219 184.204 251.215C184.233 251.211 184.263 251.213 184.291 251.221C184.319 251.228 184.346 251.241 184.369 251.259C184.392 251.277 184.412 251.299 184.427 251.324C184.441 251.35 184.451 251.378 184.455 251.407C184.459 251.436 184.457 251.466 184.449 251.494C184.442 251.522 184.429 251.549 184.411 251.572C177.095 261.203 174.651 272.945 173.889 281.1C173.38 286.271 173.414 291.481 173.991 296.645C173.995 296.677 173.993 296.709 173.984 296.74C173.975 296.77 173.959 296.799 173.938 296.823C173.917 296.847 173.892 296.866 173.863 296.88C173.834 296.893 173.802 296.9 173.77 296.9Z" fill="#3F3D56"/>
<path d="M177.459 264.148C177.412 264.148 177.367 264.133 177.329 264.105C177.291 264.078 177.262 264.039 177.248 263.994C177.233 263.949 177.233 263.901 177.248 263.856C177.262 263.811 177.291 263.772 177.328 263.744C179.431 262.317 181.703 261.157 184.091 260.291C187.822 258.921 193.495 257.679 199.336 259.544C199.392 259.562 199.439 259.601 199.466 259.654C199.493 259.706 199.499 259.767 199.481 259.824C199.463 259.88 199.423 259.927 199.371 259.954C199.319 259.981 199.258 259.986 199.201 259.969C193.48 258.142 187.91 259.364 184.244 260.71C181.894 261.561 179.659 262.701 177.59 264.105C177.552 264.133 177.506 264.148 177.459 264.148Z" fill="#3F3D56"/>
<path d="M65.5258 60.6669C77.4612 60.6669 87.1366 50.9615 87.1366 38.9894C87.1366 27.0173 77.4612 17.312 65.5258 17.312C53.5905 17.312 43.9151 27.0173 43.9151 38.9894C43.9151 50.9615 53.5905 60.6669 65.5258 60.6669Z" fill="#FF6584"/>
<path d="M63.8129 50.3398H61.0486V33.2671C61.0486 30.9599 60.1349 28.7472 58.5085 27.1157C56.882 25.4843 54.6761 24.5677 52.3759 24.5677H40.3983V0H38.4774V24.5677H22.1492V50.3398H6.06117V297.462H96.3463V82.9735C96.3463 74.3185 92.9187 66.018 86.8175 59.898C80.7163 53.778 72.4413 50.3398 63.8129 50.3398Z" fill="#F2F2F2"/>
<path d="M146.514 200.878H144.13V197.534C144.129 195.316 143.283 193.183 141.765 191.571C140.248 189.958 138.173 188.989 135.966 188.86V166.194H134.045V188.834H125.401V200.878H94.6654V297.703H162.859V217.273C162.859 215.12 162.437 212.988 161.615 210.999C160.794 209.01 159.59 207.202 158.072 205.68C156.554 204.157 154.752 202.949 152.769 202.126C150.786 201.302 148.661 200.877 146.514 200.878Z" fill="#F2F2F2"/>
<path d="M278.117 131.562V125.758C278.116 123.54 277.27 121.407 275.752 119.794C274.235 118.182 272.16 117.212 269.953 117.084V94.4172H268.032V117.058H259.388V131.51H218.567V297.703H308.852V164.143C308.852 155.801 305.666 147.775 299.95 141.716C294.234 135.656 286.421 132.023 278.117 131.562Z" fill="#F2F2F2"/>
<path d="M245.461 155.114H233.455V164.748H245.461V155.114Z" fill="white"/>
<path d="M265.151 155.114H253.145V164.748H265.151V155.114Z" fill="white"/>
<path d="M284.84 155.114H272.834V164.748H284.84V155.114Z" fill="white"/>
<path d="M245.461 179.682H233.455V189.316H245.461V179.682Z" fill="white"/>
<path d="M265.151 179.682H253.145V189.316H265.151V179.682Z" fill="white"/>
<path d="M284.84 179.682H272.834V189.316H284.84V179.682Z" fill="white"/>
<path d="M245.461 204.25H233.455V213.884H245.461V204.25Z" fill="white"/>
<path d="M265.151 204.25H253.145V213.884H265.151V204.25Z" fill="white"/>
<path d="M284.84 204.25H272.834V213.884H284.84V204.25Z" fill="white"/>
<path d="M245.461 228.817H233.455V238.452H245.461V228.817Z" fill="white"/>
<path d="M265.151 228.817H253.145V238.452H265.151V228.817Z" fill="white"/>
<path d="M284.84 228.817H272.834V238.452H284.84V228.817Z" fill="white"/>
<path d="M245.461 253.385H233.455V263.019H245.461V253.385Z" fill="white"/>
<path d="M265.151 253.385H253.145V263.019H265.151V253.385Z" fill="white"/>
<path d="M284.84 253.385H272.834V263.019H284.84V253.385Z" fill="white"/>
<path d="M245.461 277.953H233.455V287.587H245.461V277.953Z" fill="white"/>
<path d="M265.151 277.953H253.145V287.587H265.151V277.953Z" fill="white"/>
<path d="M284.84 277.953H272.834V287.587H284.84V277.953Z" fill="white"/>
<path d="M70.6534 69.8495H31.754V72.7398H70.6534V69.8495Z" fill="white"/>
<path d="M70.6534 87.6731H31.754V90.5634H70.6534V87.6731Z" fill="white"/>
<path d="M70.6534 105.497H31.754V108.387H70.6534V105.497Z" fill="white"/>
<path d="M70.6534 123.32H31.754V126.211H70.6534V123.32Z" fill="white"/>
<path d="M70.6534 141.144H31.754V144.034H70.6534V141.144Z" fill="white"/>
<path d="M70.6534 158.968H31.754V161.858H70.6534V158.968Z" fill="white"/>
<path d="M70.6534 176.791H31.754V179.682H70.6534V176.791Z" fill="white"/>
<path d="M70.6534 194.615H31.754V197.505H70.6534V194.615Z" fill="white"/>
<path d="M70.6534 212.439H31.754V215.329H70.6534V212.439Z" fill="white"/>
<path d="M70.6534 230.262H31.754V233.153H70.6534V230.262Z" fill="white"/>
<path d="M70.6534 248.086H31.754V250.976H70.6534V248.086Z" fill="white"/>
<path d="M70.6534 265.91H31.754V268.8H70.6534V265.91Z" fill="white"/>
<path d="M115.076 213.884H103.07V223.518H115.076V213.884Z" fill="white"/>
<path d="M134.765 213.884H122.759V223.518H134.765V213.884Z" fill="white"/>
<path d="M154.455 213.884H142.449V223.518H154.455V213.884Z" fill="white"/>
<path d="M115.316 238.452H103.31V248.086H115.316V238.452Z" fill="white"/>
<path d="M135.006 238.452H123V248.086H135.006V238.452Z" fill="white"/>
<path d="M154.695 238.452H142.689V248.086H154.695V238.452Z" fill="white"/>
<path d="M115.556 263.019H103.55V272.654H115.556V263.019Z" fill="white"/>
<path d="M135.246 263.019H123.24V272.654H135.246V263.019Z" fill="white"/>
<path d="M154.936 263.019H142.93V272.654H154.936V263.019Z" fill="white"/>
<path d="M47.6019 29.8667H35.5959V39.5011H47.6019V29.8667Z" fill="white"/>
<path d="M9.35828 273.713C10.3126 266.016 15.0683 258.432 22.3866 255.927C19.5004 263.85 19.5011 272.541 22.3884 280.463C23.5129 283.514 25.0804 286.791 24.0226 289.866C23.3645 291.779 21.7544 293.243 19.9547 294.159C18.1549 295.074 16.1575 295.51 14.185 295.938L13.7969 296.26C10.6656 289.168 8.40398 281.41 9.35828 273.713Z" fill="#CACACA"/>
<path d="M22.4592 256.072C18.1974 260.862 15.5485 266.878 14.8889 273.264C14.7226 274.636 14.7729 276.026 15.0381 277.382C15.3389 278.696 15.9848 279.904 16.9087 280.882C17.7518 281.811 18.7215 282.663 19.3248 283.782C19.6251 284.359 19.8005 284.994 19.8392 285.644C19.878 286.294 19.7794 286.944 19.5498 287.553C19.0172 289.086 17.9674 290.335 16.8985 291.52C15.7117 292.837 14.4581 294.185 13.9537 295.931C13.8925 296.142 13.569 296.034 13.63 295.823C14.5078 292.787 17.4463 291.062 18.8477 288.327C19.5016 287.051 19.776 285.57 19.163 284.223C18.6269 283.045 17.6277 282.165 16.7659 281.231C15.8507 280.29 15.1791 279.139 14.8097 277.878C14.4766 276.539 14.3729 275.154 14.5033 273.78C14.7475 270.683 15.4756 267.644 16.661 264.774C17.9957 261.491 19.8805 258.462 22.2337 255.816C22.3795 255.652 22.604 255.91 22.4592 256.072H22.4592Z" fill="white"/>
<path d="M14.9806 271.195C13.9275 270.938 12.9996 270.315 12.3625 269.435C11.7254 268.556 11.4208 267.478 11.5029 266.394C11.5202 266.175 11.8607 266.192 11.8434 266.411C11.765 267.42 12.0489 268.425 12.6438 269.242C13.2387 270.06 14.1054 270.637 15.0875 270.87C15.3008 270.921 15.1928 271.246 14.9806 271.195H14.9806Z" fill="white"/>
<path d="M16.4193 280.467C18.3214 279.328 19.7255 277.511 20.3517 275.38C20.4136 275.169 20.7371 275.276 20.6753 275.487C20.0196 277.704 18.5545 279.591 16.5726 280.772C16.3836 280.885 16.2314 280.579 16.4193 280.467Z" fill="white"/>
<path d="M18.3119 261.815C18.6987 262 19.1252 262.085 19.553 262.063C19.9807 262.041 20.3964 261.913 20.7627 261.69C20.9501 261.576 21.1022 261.882 20.916 261.996C20.5102 262.24 20.0509 262.381 19.5783 262.406C19.1058 262.431 18.6343 262.34 18.205 262.14C18.163 262.124 18.1284 262.093 18.1082 262.053C18.0881 262.013 18.0839 261.967 18.0966 261.924C18.111 261.881 18.1417 261.845 18.182 261.825C18.2223 261.805 18.2689 261.801 18.3119 261.815H18.3119Z" fill="white"/>
<path d="M44.6939 269.675C44.5788 269.75 44.4638 269.825 44.3486 269.903C42.8074 270.92 41.351 272.06 39.9939 273.314C39.8875 273.409 39.781 273.507 39.6775 273.605C36.44 276.659 33.7959 280.29 31.8797 284.312C31.1186 285.913 30.4801 287.57 29.9697 289.269C29.265 291.615 28.6869 294.214 27.2918 296.133C27.1485 296.335 26.9929 296.527 26.8258 296.71H14.2186C14.19 296.696 14.1612 296.684 14.1324 296.67L13.629 296.693C13.6493 296.603 13.6721 296.511 13.6924 296.421C13.7039 296.369 13.7182 296.318 13.7297 296.266C13.7383 296.231 13.747 296.196 13.7528 296.165C13.7556 296.153 13.7586 296.142 13.7614 296.133C13.7671 296.101 13.7758 296.072 13.7816 296.043C13.9081 295.527 14.0385 295.011 14.1727 294.494C14.1727 294.491 14.1727 294.491 14.1755 294.488C15.1608 290.543 16.6091 286.729 18.4901 283.126C18.5477 283.019 18.6051 282.91 18.6685 282.803C19.5395 281.208 20.539 279.687 21.657 278.256C22.2718 277.474 22.9255 276.724 23.6159 276.008C25.4031 274.163 27.4687 272.611 29.7367 271.409C34.2585 269.015 39.4934 268.097 44.3258 269.56C44.4493 269.597 44.5703 269.635 44.6939 269.675Z" fill="#CACACA"/>
<path d="M44.6655 269.836C38.3876 271.086 32.6622 274.289 28.3025 278.99C27.3461 279.985 26.552 281.125 25.9495 282.369C25.4016 283.599 25.1921 284.954 25.3427 286.292C25.4582 287.544 25.7208 288.81 25.531 290.067C25.4244 290.71 25.1836 291.322 24.8245 291.864C24.4653 292.407 23.996 292.867 23.4471 293.214C22.1021 294.116 20.5142 294.479 18.9491 294.781C17.2113 295.115 15.4011 295.435 13.9507 296.523C13.775 296.655 13.5812 296.374 13.7567 296.242C16.28 294.348 19.6615 294.746 22.4219 293.408C23.71 292.784 24.8184 291.767 25.1375 290.321C25.4165 289.057 25.1469 287.751 25.019 286.485C24.853 285.181 25.0077 283.856 25.4698 282.626C26.0072 281.356 26.7562 280.187 27.6847 279.169C29.7384 276.844 32.1439 274.857 34.8129 273.282C37.8491 271.467 41.1725 270.186 44.6393 269.495C44.8539 269.452 44.8787 269.793 44.6655 269.836H44.6655Z" fill="white"/>
<path d="M29.6175 277.394C28.9306 276.553 28.564 275.495 28.5831 274.408C28.6023 273.321 29.006 272.276 29.7222 271.46C29.8677 271.296 30.1295 271.515 29.9838 271.679C29.3155 272.438 28.9395 273.411 28.9237 274.423C28.9079 275.435 29.2534 276.42 29.8976 277.199C30.0375 277.368 29.7565 277.562 29.6175 277.394Z" fill="white"/>
<path d="M25.2009 285.666C27.4034 285.905 29.6148 285.303 31.3941 283.979C31.5703 283.847 31.7642 284.129 31.5882 284.26C29.734 285.634 27.4314 286.256 25.14 286.002C24.9216 285.978 24.9837 285.642 25.2009 285.666Z" fill="white"/>
<path d="M37.9072 271.916C38.1054 272.297 38.3949 272.623 38.7495 272.864C39.1041 273.105 39.5128 273.253 39.939 273.297C40.1576 273.318 40.0952 273.655 39.8781 273.633C39.4075 273.583 38.9563 273.418 38.5639 273.153C38.1715 272.887 37.8499 272.53 37.6271 272.111C37.6028 272.073 37.5937 272.028 37.6017 271.983C37.6097 271.939 37.6342 271.9 37.6701 271.873C37.7073 271.848 37.7531 271.838 37.7975 271.846C37.8419 271.854 37.8813 271.879 37.9072 271.916Z" fill="white"/>
<path d="M238.433 273.713C239.387 266.016 244.143 258.432 251.461 255.927C248.575 263.85 248.575 272.541 251.463 280.463C252.587 283.514 254.155 286.791 253.097 289.866C252.439 291.779 250.829 293.243 249.029 294.159C247.229 295.074 245.232 295.51 243.259 295.938L242.871 296.26C239.74 289.168 237.478 281.41 238.433 273.713Z" fill="#CACACA"/>
<path d="M251.534 256.072C247.272 260.862 244.623 266.878 243.963 273.264C243.797 274.636 243.847 276.026 244.112 277.382C244.413 278.696 245.059 279.904 245.983 280.882C246.826 281.811 247.796 282.663 248.399 283.782C248.7 284.359 248.875 284.994 248.914 285.644C248.952 286.294 248.854 286.944 248.624 287.553C248.092 289.086 247.042 290.335 245.973 291.52C244.786 292.837 243.533 294.185 243.028 295.931C242.967 296.142 242.643 296.034 242.704 295.823C243.582 292.787 246.521 291.062 247.922 288.327C248.576 287.051 248.85 285.57 248.237 284.223C247.701 283.045 246.702 282.165 245.84 281.231C244.925 280.29 244.254 279.139 243.884 277.878C243.551 276.539 243.447 275.154 243.578 273.78C243.822 270.683 244.55 267.644 245.735 264.774C247.07 261.491 248.955 258.462 251.308 255.816C251.454 255.652 251.678 255.91 251.534 256.072Z" fill="white"/>
<path d="M244.055 271.195C243.002 270.938 242.074 270.315 241.437 269.435C240.8 268.556 240.495 267.478 240.577 266.394C240.595 266.175 240.935 266.192 240.918 266.411C240.839 267.42 241.123 268.425 241.718 269.242C242.313 270.06 243.18 270.637 244.162 270.87C244.375 270.921 244.267 271.246 244.055 271.195Z" fill="white"/>
<path d="M245.494 280.467C247.396 279.328 248.8 277.511 249.426 275.38C249.488 275.169 249.812 275.276 249.75 275.487C249.094 277.704 247.629 279.591 245.647 280.772C245.458 280.885 245.306 280.579 245.494 280.467Z" fill="white"/>
<path d="M247.386 261.815C247.773 262 248.2 262.085 248.627 262.063C249.055 262.041 249.471 261.913 249.837 261.69C250.025 261.576 250.177 261.882 249.99 261.996C249.585 262.24 249.125 262.381 248.653 262.406C248.18 262.431 247.709 262.34 247.279 262.14C247.237 262.124 247.203 262.093 247.183 262.053C247.162 262.013 247.158 261.967 247.171 261.924C247.185 261.881 247.216 261.845 247.256 261.825C247.297 261.805 247.343 261.801 247.386 261.815H247.386Z" fill="white"/>
<path d="M273.768 269.675C273.653 269.75 273.538 269.825 273.423 269.903C271.882 270.92 270.425 272.06 269.068 273.314C268.962 273.409 268.855 273.507 268.752 273.605C265.514 276.659 262.87 280.29 260.954 284.312C260.193 285.913 259.555 287.57 259.044 289.269C258.339 291.615 257.761 294.214 256.366 296.133C256.223 296.335 256.067 296.527 255.9 296.71H243.293C243.264 296.696 243.236 296.684 243.207 296.67L242.703 296.693C242.724 296.603 242.747 296.511 242.767 296.421C242.778 296.369 242.793 296.318 242.804 296.266C242.813 296.231 242.821 296.196 242.827 296.165C242.83 296.153 242.833 296.142 242.836 296.133C242.842 296.101 242.85 296.072 242.856 296.043C242.983 295.527 243.113 295.011 243.247 294.494C243.247 294.491 243.247 294.491 243.25 294.488C244.235 290.543 245.683 286.729 247.564 283.126C247.622 283.019 247.68 282.91 247.743 282.803C248.614 281.208 249.613 279.687 250.731 278.256C251.346 277.474 252 276.724 252.69 276.008C254.478 274.163 256.543 272.611 258.811 271.409C263.333 269.015 268.568 268.097 273.4 269.56C273.524 269.597 273.645 269.635 273.768 269.675Z" fill="#CACACA"/>
<path d="M273.74 269.836C267.462 271.086 261.737 274.289 257.377 278.99C256.42 279.985 255.626 281.125 255.024 282.369C254.476 283.599 254.267 284.954 254.417 286.292C254.533 287.544 254.795 288.81 254.605 290.067C254.499 290.71 254.258 291.322 253.899 291.864C253.54 292.407 253.07 292.867 252.522 293.214C251.177 294.116 249.589 294.479 248.024 294.781C246.286 295.115 244.475 295.435 243.025 296.523C242.849 296.655 242.656 296.374 242.831 296.242C245.354 294.348 248.736 294.746 251.496 293.408C252.784 292.784 253.893 291.767 254.212 290.321C254.491 289.057 254.221 287.751 254.093 286.485C253.927 285.181 254.082 283.856 254.544 282.626C255.082 281.356 255.831 280.187 256.759 279.169C258.813 276.844 261.218 274.857 263.887 273.282C266.924 271.467 270.247 270.186 273.714 269.495C273.928 269.452 273.953 269.793 273.74 269.836H273.74Z" fill="white"/>
<path d="M258.692 277.394C258.005 276.553 257.638 275.495 257.658 274.408C257.677 273.321 258.08 272.276 258.797 271.46C258.942 271.296 259.204 271.515 259.058 271.679C258.39 272.438 258.014 273.411 257.998 274.423C257.982 275.435 258.328 276.42 258.972 277.199C259.112 277.368 258.831 277.562 258.692 277.394Z" fill="white"/>
<path d="M254.275 285.666C256.478 285.905 258.689 285.303 260.469 283.979C260.645 283.847 260.839 284.129 260.663 284.26C258.808 285.634 256.506 286.256 254.214 286.002C253.996 285.978 254.058 285.642 254.275 285.666Z" fill="white"/>
<path d="M266.982 271.916C267.18 272.297 267.469 272.623 267.824 272.864C268.178 273.105 268.587 273.253 269.013 273.297C269.232 273.318 269.17 273.655 268.952 273.633C268.482 273.583 268.031 273.418 267.638 273.153C267.246 272.887 266.924 272.53 266.701 272.111C266.677 272.073 266.668 272.028 266.676 271.983C266.684 271.939 266.709 271.9 266.744 271.873C266.782 271.848 266.827 271.838 266.872 271.846C266.916 271.854 266.956 271.879 266.982 271.916Z" fill="white"/>
<path d="M99.5607 36.1349C98.5575 35.4246 97.4599 34.6839 96.2323 34.7135C93.2612 34.7852 91.6593 39.1542 88.6912 39.0005C86.7983 38.9025 85.5418 36.9738 83.7794 36.2744C81.4849 35.3639 78.5649 37.1446 78.3146 39.6069L78.6093 39.3364C87.5285 41.5174 96.7843 41.9464 105.866 40.5994C103.764 39.1113 101.662 37.6231 99.5607 36.1349Z" fill="#F0F0F0"/>
<path d="M236.429 16.3844C235.426 15.6741 234.328 14.9333 233.101 14.963C230.13 15.0346 228.528 19.4036 225.56 19.25C223.667 19.152 222.41 17.2232 220.648 16.5238C218.353 15.6134 215.433 17.394 215.183 19.8564L215.478 19.5858C224.397 21.7669 233.653 22.1958 242.734 20.8489C240.633 19.3607 238.531 17.8725 236.429 16.3844Z" fill="#F0F0F0"/>
<path d="M160.071 96.8317C159.068 96.1214 157.97 95.3807 156.743 95.4103C153.771 95.4819 152.169 99.851 149.201 99.6973C147.309 99.5993 146.052 97.6705 144.29 96.9712C141.995 96.0607 139.075 97.8414 138.825 100.304L139.119 100.033C148.039 102.214 157.294 102.643 166.376 101.296C164.274 99.8081 162.173 98.3199 160.071 96.8317Z" fill="#F0F0F0"/>
<path d="M210.192 228.117C210.218 228.101 210.239 228.079 210.254 228.052C210.269 228.026 210.278 227.996 210.279 227.966C210.254 227.988 210.229 228.012 210.204 228.033C210.2 228.061 210.199 228.088 210.192 228.117Z" fill="#2F2E41"/>
<path d="M311.428 298H0.571816C0.420449 297.999 0.275427 297.939 0.168548 297.831C0.0616701 297.724 0.00166321 297.578 0.00166321 297.426C0.00166321 297.275 0.0616701 297.129 0.168548 297.021C0.275427 296.914 0.420449 296.853 0.571816 296.853H311.428C311.58 296.853 311.725 296.914 311.831 297.021C311.938 297.129 311.998 297.275 311.998 297.426C311.998 297.578 311.938 297.724 311.831 297.831C311.725 297.939 311.58 297.999 311.428 298Z" fill="#CACACA"/>
<path d="M234.641 77.545C234.837 77.0959 234.897 76.599 234.814 76.1159C234.731 75.6328 234.508 75.1848 234.173 74.8275C233.918 74.5626 233.622 74.3394 233.298 74.1658L233.172 74.1327C232.81 74.0379 232.427 74.0641 232.082 74.2073C231.736 74.3505 231.446 74.6029 231.257 74.9261L231.19 75.0396C231.055 75.2698 230.975 75.5284 230.957 75.7949C230.939 76.0614 230.982 76.3285 231.084 76.5752L231.335 77.1807L229.744 79.8147C229.675 79.9284 229.652 80.0642 229.68 80.1942C229.708 80.3243 229.785 80.4385 229.894 80.5136L230.245 80.7542C230.302 80.7933 230.366 80.8206 230.434 80.8344C230.501 80.8483 230.571 80.8485 230.639 80.835C230.706 80.8216 230.771 80.7946 230.828 80.7559C230.885 80.7171 230.934 80.6673 230.972 80.6093L232.382 78.4434C232.526 78.5057 232.677 78.5481 232.833 78.5692C233.204 78.6198 233.582 78.5471 233.908 78.3621C234.235 78.1772 234.492 77.8902 234.641 77.545Z" fill="white"/>
<path d="M232.146 77.2214C232.062 77.1683 232.002 77.0838 231.979 76.9863C231.957 76.8889 231.974 76.7865 232.026 76.7016L232.584 75.8057C232.61 75.7636 232.644 75.727 232.685 75.698C232.725 75.6691 232.77 75.6484 232.819 75.6371C232.867 75.6259 232.917 75.6243 232.965 75.6324C233.014 75.6406 233.061 75.6583 233.103 75.6846C233.145 75.7109 233.181 75.7452 233.21 75.7857C233.239 75.8261 233.259 75.8718 233.27 75.9202C233.281 75.9685 233.283 76.0186 233.275 76.0676C233.266 76.1165 233.248 76.1633 233.222 76.2054L232.664 77.1012C232.611 77.186 232.527 77.2462 232.43 77.2688C232.333 77.2913 232.231 77.2743 232.146 77.2214Z" fill="#2F2E41"/>
<path d="M166.876 162.885L164.735 163.985C164.715 163.996 164.691 163.997 164.67 163.99C164.648 163.983 164.63 163.968 164.62 163.948C164.609 163.927 164.607 163.904 164.614 163.882C164.621 163.86 164.637 163.842 164.657 163.832L166.798 162.731C166.808 162.726 166.819 162.723 166.83 162.722C166.842 162.721 166.853 162.722 166.864 162.726C166.875 162.729 166.885 162.735 166.893 162.742C166.902 162.749 166.909 162.758 166.914 162.769C166.919 162.779 166.923 162.79 166.923 162.801C166.924 162.812 166.923 162.824 166.92 162.835C166.916 162.845 166.91 162.855 166.903 162.864C166.896 162.873 166.887 162.88 166.876 162.885Z" fill="white"/>
<path d="M167.174 162.705C167.212 162.705 167.243 162.674 167.243 162.636C167.243 162.597 167.212 162.566 167.174 162.566C167.136 162.566 167.105 162.597 167.105 162.636C167.105 162.674 167.136 162.705 167.174 162.705Z" fill="white"/>
<path d="M163.035 170.088C162.998 170.107 162.956 170.11 162.917 170.098C162.878 170.085 162.845 170.058 162.826 170.021L162.513 169.407C162.494 169.371 162.491 169.328 162.503 169.289C162.516 169.25 162.544 169.217 162.58 169.198C162.617 169.18 162.659 169.176 162.698 169.189C162.737 169.202 162.77 169.229 162.788 169.266L163.102 169.88C163.12 169.916 163.124 169.959 163.111 169.998C163.099 170.037 163.071 170.07 163.035 170.088Z" fill="#3F3D56"/>
<path d="M163.614 171.224C163.578 171.242 163.535 171.246 163.496 171.233C163.457 171.22 163.425 171.193 163.406 171.156L163.093 170.542C163.083 170.524 163.078 170.505 163.076 170.484C163.074 170.464 163.077 170.443 163.083 170.424C163.089 170.404 163.099 170.386 163.112 170.371C163.125 170.355 163.142 170.343 163.16 170.333C163.178 170.324 163.198 170.318 163.218 170.317C163.238 170.315 163.259 170.317 163.278 170.324C163.297 170.33 163.315 170.34 163.331 170.353C163.346 170.367 163.359 170.383 163.368 170.401L163.681 171.015C163.7 171.051 163.704 171.094 163.691 171.133C163.678 171.172 163.651 171.205 163.614 171.224Z" fill="#3F3D56"/>
</g>
<defs>
<clipPath id="clip0_21_532">
<rect width="312" height="298" fill="white"/>
</clipPath>
</defs>
</svg>
