<svg width="100%" height="100%" id="svg" viewBox="0 0 1440 600" xmlns="http://www.w3.org/2000/svg" class="transition duration-300 ease-in-out delay-150"><defs><linearGradient id="gradient" x1="0%" y1="50%" x2="100%" y2="50%"><stop offset="5%" stop-color="#4a99f5"></stop><stop offset="95%" stop-color="#32ded4"></stop></linearGradient></defs><path d="M 0,600 C 0,600 0,200 0,200 C 93.82142857142858,172.53571428571428 187.64285714285717,145.07142857142858 303,165 C 418.35714285714283,184.92857142857142 555.25,252.25 697,259 C 838.75,265.75 985.3571428571429,211.92857142857144 1110,192 C 1234.642857142857,172.07142857142856 1337.3214285714284,186.03571428571428 1440,200 C 1440,200 1440,600 1440,600 Z" stroke="none" stroke-width="0" fill="url(#gradient)" fill-opacity="0.53" class="transition-all duration-300 ease-in-out delay-150 path-0"></path><defs><linearGradient id="gradient" x1="0%" y1="50%" x2="100%" y2="50%"><stop offset="5%" stop-color="#4a99f5"></stop><stop offset="95%" stop-color="#32ded4"></stop></linearGradient></defs><path d="M 0,600 C 0,600 0,400 0,400 C 135.42857142857142,390.75 270.85714285714283,381.5 382,365 C 493.14285714285717,348.5 580.0000000000001,324.75 709,334 C 837.9999999999999,343.25 1009.1428571428571,385.5 1138,402 C 1266.857142857143,418.5 1353.4285714285716,409.25 1440,400 C 1440,400 1440,600 1440,600 Z" stroke="none" stroke-width="0" fill="url(#gradient)" fill-opacity="1" class="transition-all duration-300 ease-in-out delay-150 path-1"></path></svg>